<svg width="56" height="42" viewBox="0 0 56 42" fill="none" xmlns="http://www.w3.org/2000/svg">
    <path d="M27.2734 36.8777L27.1286 18.3812C27.0759 14.1785 29.863 11.2636 38.202 8.60584L50.4854 4.79643C50.5064 8.9236 50.4381 12.61 50.5769 15.4671C50.7809 18.5403 50.6964 21.6261 50.3246 24.6834C50.1848 25.6839 49.8444 26.6455 49.3241 27.51C48.8038 28.3746 48.1143 29.1241 47.2974 29.7133C44.1255 32.0184 38.2251 33.4228 27.2734 36.8777Z" fill="#D2B467" />
    <path d="M3.73242 5.06977L3.76868 23.5746C3.76861 27.7723 6.59324 30.7195 14.9412 33.2084L27.2946 36.8779C27.276 32.7497 27.2493 29.0658 27.2911 26.2041C27.4683 23.1304 27.3474 20.047 26.9302 16.9973C26.786 15.9965 26.437 15.0366 25.9049 14.1777C25.3729 13.3188 24.6693 12.5794 23.8383 12.006C20.6759 9.7346 14.754 8.38881 3.73242 5.06977Z" fill="#F8F7EC" />
</svg>
    