<svg width="238" height="258" viewBox="0 0 238 258" fill="none" xmlns="http://www.w3.org/2000/svg">
    <path fill-rule="evenodd" clip-rule="evenodd" d="M118.977 157.019L120.917 157.021L119.796 160.767C115.622 174.719 111.896 187.175 109.138 196.978C108.94 197.68 108.745 198.371 108.554 199.052C104.654 212.912 101.987 222.391 98.1646 229.805C94.0914 237.707 89.0156 242.407 81.4166 245.077C74.4974 247.535 65.463 248.344 53.09 248.586C46.2545 248.72 38.3146 248.681 29.0713 248.635C21.5795 248.597 13.2313 248.555 3.9208 248.598L1.97835 248.607L22.0305 180.644C22.0306 180.643 22.0305 180.644 22.0305 180.644C24.3485 172.774 28.9247 166.807 37.0189 162.861C45.0178 158.961 56.3827 157.068 72.2596 157.051C88.4533 157.028 100.132 157.02 107.763 157.018C111.579 157.017 114.382 157.017 116.232 157.018C117.156 157.018 117.843 157.018 118.298 157.018L118.977 157.019C118.977 157.019 118.977 157.019 118.971 158.495L118.977 157.019ZM117.025 159.971C116.78 159.971 116.512 159.971 116.221 159.971C114.372 159.97 111.569 159.97 107.754 159.971C100.124 159.973 88.4458 159.981 72.2529 160.004C56.5214 160.021 45.6676 161.91 38.2476 165.527C30.9232 169.098 26.8798 174.383 24.7868 181.488L5.86016 245.638C14.4623 245.608 22.1876 245.647 29.1534 245.682C38.3515 245.728 46.2254 245.767 53.0451 245.634C65.4169 245.391 74.0398 244.576 80.4844 242.286L80.4892 242.285C87.3127 239.888 91.8483 235.749 95.6199 228.433C99.2983 221.296 101.887 212.099 105.855 198.001C106.025 197.399 106.197 196.788 106.371 196.168" fill="#D2B467" />
    <path d="M4.79751 246.183C5.38287 246.995 6.49839 247.166 7.28862 246.566L31.4624 227.562C35.7502 232.013 42.6987 232.679 47.7363 228.853L94.9616 192.984C95.7518 192.384 95.918 191.239 95.3326 190.427C94.7473 189.616 93.6317 189.444 92.8415 190.044L89.8755 192.297C87.9052 190.252 85.3737 189.007 82.7228 188.629L93.7532 180.251C94.5434 179.651 94.7096 178.506 94.1242 177.694C93.5388 176.883 92.4233 176.711 91.6331 177.311L80.6028 185.689C81.0255 182.977 80.605 180.128 79.2751 177.597L82.241 175.344C83.0313 174.744 83.1974 173.599 82.612 172.787C82.0267 171.976 80.9112 171.804 80.1209 172.404L32.8956 208.273C27.8579 212.099 26.4479 219.114 29.3423 224.622L5.16853 243.626C4.37829 244.226 4.21204 245.371 4.79751 246.183ZM51.3516 198.805C51.2125 199.831 51.2097 200.874 51.3562 201.909C51.8263 205.249 50.4799 208.568 47.8424 210.571L41.9753 215.027C42.1704 213.77 42.1847 212.472 42.0017 211.171C41.5934 208.283 42.9962 205.151 45.5756 203.192L51.3516 198.805ZM64.2313 189.023C64.0922 190.048 64.0893 191.091 64.2358 192.127C64.7059 195.467 63.3596 198.786 60.7221 200.789L54.855 205.245C55.05 203.988 55.0644 202.689 54.8813 201.388C54.473 198.501 55.8758 195.369 58.4552 193.41L64.2313 189.023ZM49.9624 213.511C52.6 211.508 56.0862 211.157 59.0599 212.593C59.9828 213.04 60.9557 213.342 61.9523 213.505L56.1762 217.892C53.5968 219.851 50.2684 220.313 47.6961 219.068C46.5378 218.508 45.3239 218.143 44.0957 217.967L49.9624 213.511ZM60.5756 209.286C59.4173 208.726 58.2034 208.361 56.9752 208.185L62.842 203.729C65.4796 201.726 68.9659 201.374 71.9395 202.811C72.8624 203.258 73.8354 203.56 74.8319 203.723L69.0558 208.11C66.4763 210.069 63.148 210.531 60.5756 209.286ZM34.3647 225.358L37.0829 223.294C39.7205 221.29 43.2067 220.939 46.1804 222.376C47.1033 222.822 48.0762 223.124 49.0728 223.288L45.6164 225.913C42.1607 228.537 37.4457 228.204 34.3647 225.358ZM86.9733 194.501L81.9353 198.328C79.356 200.287 76.0275 200.749 73.4552 199.503C72.2969 198.944 71.0831 198.579 69.8549 198.403L75.7217 193.947C79.1773 191.322 83.8921 191.655 86.9733 194.501ZM73.6016 191.007L67.7346 195.463C67.9297 194.205 67.944 192.907 67.7609 191.606C67.3526 188.718 68.7555 185.587 71.3348 183.628L76.3728 179.801C78.1243 183.657 77.0572 188.382 73.6016 191.007ZM35.0157 211.213L38.472 208.588C38.3329 209.613 38.33 210.656 38.4765 211.692C38.9466 215.031 37.6003 218.35 34.9628 220.354L32.2446 222.418C30.493 218.562 31.5602 213.837 35.0157 211.213Z" fill="#D2B467" />
    <path fill-rule="evenodd" clip-rule="evenodd" d="M213.44 151.461L215.048 151.463L214.119 154.57C210.658 166.139 207.568 176.467 205.281 184.596C205.117 185.178 204.955 185.752 204.797 186.316C201.563 197.809 199.351 205.669 196.182 211.818C192.804 218.37 188.595 222.267 182.294 224.481C176.556 226.519 169.065 227.19 158.805 227.391C153.137 227.502 146.553 227.469 138.888 227.431C132.676 227.4 125.753 227.365 118.033 227.401L116.422 227.408L133.05 171.052C133.05 171.051 133.05 171.052 133.05 171.052C134.972 164.526 138.766 159.578 145.478 156.306C152.111 153.072 161.535 151.502 174.701 151.488C188.129 151.469 197.813 151.463 204.141 151.461C207.305 151.46 209.629 151.46 211.163 151.46C211.93 151.461 212.499 151.461 212.877 151.461L213.44 151.461C213.44 151.461 213.44 151.461 213.435 152.686L213.44 151.461ZM211.821 153.909C211.618 153.909 211.396 153.909 211.154 153.909C209.621 153.909 207.297 153.908 204.133 153.909C197.806 153.911 188.123 153.918 174.695 153.937C161.65 153.951 152.65 155.517 146.497 158.517C140.424 161.478 137.071 165.86 135.335 171.752L119.641 224.946C126.774 224.921 133.18 224.953 138.956 224.982C146.583 225.021 153.113 225.054 158.768 224.943C169.027 224.742 176.177 224.066 181.521 222.167L181.525 222.166C187.183 220.178 190.944 216.746 194.071 210.679C197.122 204.762 199.268 197.135 202.559 185.445C202.699 184.946 202.842 184.439 202.987 183.925" fill="#F8F7EC" />
    <g clip-path="url(#clip0)">
        <path d="M195.049 177.757C195.382 175.351 194.782 172.956 193.36 171.014C190.59 167.23 186.549 164.779 181.983 164.113C177.416 163.448 172.871 164.647 169.183 167.49L145.048 186.097C137.436 191.965 135.896 203.095 141.615 210.907C143.082 212.912 145.208 214.117 147.456 214.445C149.703 214.772 152.072 214.222 154.026 212.716L162.09 206.499C163.578 207.426 165.226 208.022 166.922 208.27C170.151 208.74 173.553 207.95 176.36 205.786L178.93 203.804L179.81 203.126C182.529 201.03 184.29 197.972 184.768 194.517C185.015 192.73 184.903 190.947 184.456 189.256L191.597 183.75C193.49 182.291 194.716 180.162 195.049 177.757ZM161.034 201.258L160.234 200.164L160.708 199.799C164.941 196.535 170.972 197.414 174.153 201.759L174.953 202.852L174.479 203.218C170.246 206.481 164.215 205.602 161.034 201.258ZM177.93 200.558L177.456 200.923L176.655 199.83C173.475 195.485 174.331 189.296 178.565 186.032L179.039 185.667L179.839 186.76C183.02 191.105 182.163 197.294 177.93 200.558ZM189.717 181.182L183.217 186.193C182.955 185.725 182.663 185.27 182.342 184.831L179.661 181.169L176.685 183.464C173.966 185.56 172.205 188.618 171.726 192.073C171.554 193.317 171.557 194.558 171.724 195.768C170.639 195.266 169.477 194.918 168.266 194.741C164.899 194.25 161.547 195.134 158.827 197.231L155.851 199.525L158.532 203.187C158.855 203.628 159.2 204.042 159.564 204.428L152.145 210.148C149.618 212.096 146.016 211.571 144.117 208.977C139.772 203.042 140.546 194.769 145.659 189.769L150.658 196.596L153.16 194.667L148.103 187.759L153.773 183.387L158.831 190.295L161.333 188.366L156.276 181.458L161.947 177.086L167.004 183.994L169.506 182.065L164.449 175.157L170.12 170.785L175.177 177.693L177.679 175.764L172.702 168.965C175.38 167.435 178.455 166.843 181.543 167.293C185.281 167.838 188.589 169.845 190.857 172.943C192.757 175.537 192.245 179.233 189.717 181.182Z" fill="#F8F7EC" />
    </g>
    <path fill-rule="evenodd" clip-rule="evenodd" d="M234.562 13.5042L237.225 13.5067L235.686 18.6521C229.954 37.8127 224.837 54.9185 221.049 68.3814C220.777 69.3453 220.51 70.2949 220.247 71.2294C214.891 90.2641 211.228 103.282 205.979 113.465C200.385 124.317 193.414 130.771 182.978 134.438C173.476 137.814 161.069 138.925 144.076 139.258C134.689 139.442 123.785 139.387 111.091 139.324C100.802 139.272 89.3368 139.215 76.5504 139.274L73.8827 139.286L101.421 45.949C101.421 45.9487 101.421 45.9493 101.421 45.949C104.604 35.142 110.889 26.9463 122.005 21.5271C132.99 16.1717 148.598 13.5719 170.403 13.5482C192.642 13.5171 208.682 13.5061 219.161 13.5029C224.401 13.5013 228.251 13.5016 230.791 13.5023C232.061 13.5027 233.004 13.5032 233.629 13.5035L234.562 13.5042C234.562 13.5042 234.562 13.5042 234.553 15.532L234.562 13.5042ZM231.881 17.5584C231.545 17.5582 231.177 17.5581 230.776 17.558C228.237 17.5572 224.388 17.5569 219.148 17.5585C208.67 17.5617 192.632 17.5727 170.394 17.6039C148.789 17.6273 133.883 20.221 123.693 25.1888C113.634 30.0927 108.081 37.3505 105.207 47.1091L79.2138 135.208C91.0274 135.167 101.637 135.22 111.203 135.268C123.835 135.332 134.649 135.386 144.015 135.203C161.005 134.87 172.848 133.75 181.698 130.606L181.705 130.603C191.076 127.311 197.305 121.628 202.484 111.579C207.536 101.779 211.091 89.1478 216.541 69.7868C216.774 68.9601 217.01 68.1212 217.25 67.2698" fill="#64727B" />
    <path fill-rule="evenodd" clip-rule="evenodd" d="M181.195 40.4971L182.65 42.0557L196.497 31.5112L197.886 32.944C203 38.219 204.728 44.7452 204.863 50.6058C204.979 55.6514 203.921 60.3239 202.726 63.5679L207.044 68.1953L206.369 69.6513C205.404 71.7313 203.699 74.9985 201.874 78.0039C200.961 79.5074 199.998 80.9797 199.064 82.2191C198.45 83.0345 197.784 83.8383 197.098 84.4897C196.225 98.9503 189.075 107.896 180.414 113.069C171.673 118.289 161.464 119.645 154.698 119.318L153.545 119.262L153.188 118.709C152.675 118.947 152.142 119.16 151.616 119.351C150.183 119.873 148.524 120.337 146.861 120.741C143.875 121.468 140.72 122.042 138.587 122.43L138.546 122.438L138.52 122.443C138.302 122.482 138.096 122.52 137.902 122.555L136.368 122.836L133.261 117.604C129.884 117.939 125.16 117.751 120.396 116.292C114.897 114.607 109.184 111.169 105.571 104.713L104.587 102.955L118.124 92.1108L116.71 89.7282L128.683 80.7485L127.581 79.0409L167.879 48.4055L169.135 49.8657L181.195 40.4971ZM195.966 37.7346C199.055 41.6552 200.209 46.2799 200.311 50.7158C200.386 54.0104 199.877 57.1306 199.192 59.6371L185.999 45.3248L195.966 37.7346ZM110.584 104.079C113.46 108.167 117.527 110.536 121.699 111.814C124.806 112.766 127.902 113.088 130.452 113.072L120.488 96.1458L110.584 104.079ZM138.636 117.675L122.777 90.9659L131.012 84.7894L150.609 114.751C150.448 114.815 150.276 114.88 150.093 114.947C148.878 115.39 147.396 115.808 145.81 116.194C143.317 116.801 140.69 117.299 138.636 117.675ZM180.711 46.7341L201.564 69.0791C200.642 70.9299 199.36 73.3087 198.01 75.5326C197.143 76.9603 196.269 78.29 195.462 79.3609C195.303 79.5725 195.151 79.7674 195.006 79.9463L172.246 53.3094L180.711 46.7341ZM156.053 114.686L133.763 80.1567L167.231 54.7142L192.555 84.1701C191.793 96.9388 185.611 104.558 178.124 109.03C170.797 113.405 162.159 114.782 156.053 114.686Z" fill="#64727B" />
    <defs>
        <clipPath id="clip0">
            <rect width="53.4386" height="54.7868" fill="white" transform="matrix(0.989542 0.144243 -0.13709 0.990559 143.762 158.542)" />
        </clipPath>
    </defs>
</svg>
    