<svg width="14" height="10" viewBox="0 0 14 10" fill="none" xmlns="http://www.w3.org/2000/svg">
    <path fill-rule="evenodd" clip-rule="evenodd" d="M0 5.10574C0 4.75327 0.120772 4.45619 0.362319 4.2145C0.603866 3.97281 0.893718 3.85196 1.23188 3.85196C1.57005 3.85196 1.8599 3.97281 2.10145 4.2145L4.78261 6.94864L11.2319 0.377643C11.4734 0.12588 11.7633 0 12.1014 0C12.4396 0 12.7295 0.120845 12.971 0.362538C13.2126 0.604231 13.3333 0.901307 13.3333 1.25378C13.3333 1.60625 13.2126 1.90332 12.971 2.14502L5.65217 9.62236C5.42029 9.87412 5.13044 10 4.78261 10C4.43478 10 4.14493 9.87412 3.91304 9.62236L0.347826 6.01208C0.115941 5.76032 0 5.45821 0 5.10574Z" fill="white" />
</svg>
    