<svg width="96" height="78" viewBox="0 0 96 78" fill="none" xmlns="http://www.w3.org/2000/svg">
<path fill-rule="evenodd" clip-rule="evenodd" d="M23.8212 9.10616L47.9851 2.40039L72.1952 9.10616C83.965 12.3666 94.3936 19.0723 94.3936 31.2583C94.3936 43.4443 83.965 50.1501 72.1952 53.4105L47.9851 60.0932L23.8212 53.3874C12.0282 50.127 1.59961 43.4212 1.59961 31.2352C1.59961 19.0492 12.0282 12.3434 23.8212 9.10616Z" fill="#ED1C24"/>
<path d="M51.4996 20.1138C51.1759 21.4087 50.2741 22.1718 49.141 22.5649C49.0485 22.588 48.956 22.6111 48.8635 22.6343C48.7942 22.6574 48.7248 22.6574 48.6554 22.6805C48.6092 22.6805 48.5167 22.7036 48.4704 22.7036C48.3548 22.7268 48.2161 22.7268 48.193 22.7268C48.1236 22.7268 42.9671 23.2586 42.9671 23.2586V23.2355L43.9614 18.0558C43.9614 18.0558 44.0076 17.8015 44.0308 17.7552C44.3314 16.4372 45.0482 15.6973 46.0656 15.2348C46.2737 15.1423 46.4587 15.0729 46.6668 15.0267C46.7824 15.0036 46.9905 14.9573 47.1755 14.9342C47.3374 14.9111 47.9617 14.8648 47.9617 14.8648L52.5864 14.4023V14.4255L51.5921 19.6051C51.5921 19.6051 51.5458 19.8363 51.5458 19.8826C51.5458 19.8826 51.5227 19.9519 51.5227 20.0213C51.5227 20.0444 51.5227 20.0907 51.4996 20.1138ZM56.7255 20.345C57.4423 20.1138 57.9973 19.6282 58.2054 18.8189C58.2054 18.8189 58.2054 18.7727 58.2285 18.7495C58.2285 18.7033 58.2516 18.6802 58.2516 18.657C58.2516 18.6339 58.2747 18.4952 58.2747 18.4952L58.8991 15.2348V15.2117L55.9855 15.4891C55.9855 15.4891 55.5924 15.5354 55.4768 15.5354C55.3612 15.5585 55.2225 15.5816 55.1531 15.5816C55.0144 15.6279 54.8987 15.651 54.7831 15.7204C54.1357 16.021 53.6963 16.4834 53.5113 17.3159C53.5113 17.339 53.4651 17.5009 53.4651 17.5009L52.8408 20.7613V20.7844C52.8408 20.7844 56.078 20.4607 56.1243 20.4607C56.1243 20.4607 56.2168 20.4607 56.2861 20.4375C56.3324 20.4375 56.3786 20.4144 56.4017 20.4144C56.448 20.4144 56.4942 20.3913 56.5174 20.3913C56.6099 20.3913 56.6792 20.3682 56.7255 20.345ZM42.0884 20.4375C42.0884 20.4375 42.0884 20.3913 42.1115 20.3682C42.1115 20.3219 42.1346 20.2757 42.1346 20.2757C42.1346 20.2526 42.1578 20.1138 42.1578 20.1138L42.7821 16.8534V16.8303L39.8685 17.1078C39.8685 17.1078 39.4755 17.154 39.3598 17.154C39.2442 17.1771 39.1055 17.2003 39.0361 17.2003C38.8974 17.2234 38.7818 17.2696 38.6661 17.339C38.1112 17.5934 37.695 17.9865 37.4637 18.6339C37.4406 18.7264 37.3943 18.842 37.3712 18.9345C37.3712 18.9576 37.325 19.1195 37.325 19.1195L36.7006 22.3799C36.7006 22.3799 39.9379 22.0562 39.9842 22.0562C39.9842 22.0562 40.0767 22.0562 40.146 22.0331C40.1923 22.0331 40.2385 22.0099 40.2616 22.0099C40.3079 22.0099 40.3541 21.9868 40.3773 21.9868C40.4235 21.9637 40.4929 21.9637 40.5391 21.9406C41.3253 21.7324 41.8803 21.2469 42.0884 20.4375ZM51.9621 26.4496C51.9389 26.4496 51.8927 26.4496 51.8696 26.4496C51.4071 26.519 51.0371 26.9121 51.014 27.3977V27.4439V37.0401H52.5633H52.6326C52.6789 37.0401 52.7251 37.0401 52.7714 37.017C53.1876 36.9476 53.5345 36.6008 53.6038 36.1845C53.6038 36.1383 53.6038 36.1152 53.6038 36.0689C53.6038 36.0458 53.6038 35.9533 53.6038 35.9533V26.4496H52.0083C52.0314 26.4496 51.9852 26.4496 51.9621 26.4496ZM37.8337 26.4496C37.4175 26.519 37.0937 26.8196 37.0244 27.2358C37.0244 27.2821 37.0013 27.3514 37.0013 27.3977C37.0013 27.4439 37.0013 27.5827 37.0013 27.5827V32.2536C37.0013 32.2536 33.1628 27.7214 32.5153 26.9352C32.4459 26.8658 32.3535 26.7502 32.3303 26.7271C32.2147 26.6115 32.0529 26.519 31.891 26.4727C31.8216 26.4496 31.7523 26.4496 31.6598 26.4496C31.6598 26.4496 31.6366 26.4496 31.6135 26.4496H30.0411V37.0401H31.6366C31.6366 37.0401 31.6366 37.0401 31.6598 37.0401C32.2147 37.0401 32.6541 36.6008 32.6541 36.0458V36.0227V31.1205L36.8856 36.1152C36.8856 36.1152 37.3481 36.6701 37.5331 36.8089C37.7412 36.9707 38.0187 37.0632 38.2962 37.0632C38.9436 37.0632 39.4755 36.6008 39.5679 35.9996C39.5679 35.9764 39.5911 35.9302 39.5911 35.8839C39.5911 35.8377 39.5911 35.6527 39.5911 35.6527V26.4496H38.0187C37.9262 26.4496 37.8799 26.4496 37.8337 26.4496ZM16.0977 26.4496C15.8203 26.4496 15.5428 26.5652 15.3809 26.7733L12.5136 29.9875L9.69257 26.8196C9.5307 26.6115 9.25322 26.4727 8.97574 26.4496C8.95262 26.4496 8.90637 26.4496 8.88325 26.4496H8.81388C8.49015 26.4496 7.33398 26.4496 7.33398 26.4496V37.0401H8.90637C8.90637 37.0401 8.90637 37.0401 8.9295 37.0401C9.48446 37.0401 9.9238 36.6008 9.9238 36.0458V30.2418L12.5136 33.1554L15.1266 30.2418V36.0458C15.1266 36.5776 15.5428 37.017 16.0746 37.0401C16.0977 37.0401 16.2134 37.0401 16.2134 37.0401H17.6932V26.4496C17.6932 26.4496 16.5833 26.4496 16.2134 26.4496H16.0977ZM71.1776 29.4788C71.6863 29.0394 72.4494 28.7619 73.2356 28.7619C73.5362 28.7619 73.8136 28.7851 74.1374 28.8313C74.2299 28.8544 74.5767 28.9238 74.7617 28.9701C75.0161 29.0394 75.2473 29.1319 75.5016 29.2244C75.5479 29.2475 75.6866 29.2938 75.7791 29.34C75.8716 29.3863 75.941 29.4094 75.9872 29.4325C76.0335 29.4557 76.0797 29.4556 76.1029 29.4788C76.1954 29.5019 76.311 29.525 76.4266 29.525C77.1434 29.525 77.6984 28.9469 77.6984 28.2532C77.6984 27.9295 77.5827 27.6289 77.3746 27.3977C77.3053 27.3283 77.2359 27.2358 77.1434 27.1896C77.0509 27.1202 76.8659 27.0508 76.7966 27.0046C76.6116 26.9121 76.4266 26.8427 76.2185 26.7502C75.9179 26.6346 75.5941 26.519 75.2473 26.4496C75.0623 26.4034 74.7848 26.334 74.6692 26.334C74.4148 26.2877 74.1605 26.2646 73.9061 26.2415C73.6749 26.2184 73.4437 26.2184 73.2124 26.2184C71.8019 26.2184 70.507 26.704 69.4896 27.5364C68.264 28.5538 67.5241 30.08 67.5241 31.768C67.5241 32.7392 67.7553 33.6641 68.1947 34.4734C68.634 35.2827 69.2815 35.9764 70.0908 36.462C70.9926 37.017 72.0331 37.3176 73.1662 37.3176C73.6287 37.3176 74.1142 37.2713 74.5536 37.1789C74.8542 37.1095 75.2473 37.017 75.571 36.9014C76.0104 36.7395 76.3341 36.6008 76.5191 36.4851C76.7734 36.3233 76.9584 36.1614 77.1203 35.9764C77.259 35.8146 77.3515 35.6527 77.4209 35.4908C77.5134 35.2596 77.5596 35.0515 77.5596 34.8665C77.5827 34.6584 77.5827 30.8662 77.5827 30.8662H72.9812V31.8142C72.9812 31.8142 72.9812 32.0223 72.9812 32.0686C72.9812 32.1148 73.0043 32.1611 73.0043 32.2073C73.0968 32.5773 73.4205 32.8548 73.8136 32.9242C73.8368 32.9242 73.9293 32.9473 73.9293 32.9473H73.9986H74.9698V34.4503C74.8079 34.4965 74.3686 34.6353 74.0449 34.7047C73.7211 34.774 73.3743 34.7971 73.1199 34.7971C72.4725 34.7971 71.8944 34.6122 71.3857 34.3116C71.1776 34.1959 70.9926 34.0341 70.8307 33.8722C70.6457 33.6872 70.507 33.4791 70.3914 33.271C70.1602 32.8548 70.0214 32.3461 70.0214 31.7911C70.1139 30.8199 70.507 30.0337 71.1776 29.4788ZM64.2406 26.4496C63.8243 26.519 63.5006 26.8196 63.4312 27.2358C63.4312 27.2821 63.4081 27.3514 63.4081 27.3977C63.4081 27.4439 63.4081 27.5827 63.4081 27.5827V32.2536C63.4081 32.2536 59.5696 27.7214 58.9222 26.9352C58.8528 26.8658 58.7603 26.7502 58.7372 26.7271C58.6216 26.6115 58.4597 26.519 58.2979 26.4727C58.2285 26.4496 58.1591 26.4496 58.0666 26.4496C58.0666 26.4496 58.0435 26.4496 58.0204 26.4496H56.448V37.0401H58.0435C58.0435 37.0401 58.0435 37.0401 58.0666 37.0401C58.6216 37.0401 59.0609 36.6008 59.0609 36.0458V36.0227V31.1205L63.2925 36.1152C63.2925 36.1152 63.755 36.6701 63.94 36.8089C64.1481 36.9707 64.4256 37.0632 64.703 37.0632C65.3505 37.0632 65.8823 36.6008 65.9748 35.9996C65.9748 35.9764 65.9979 35.9302 65.9979 35.8839C65.9979 35.8377 65.9979 35.6527 65.9979 35.6527V26.4496H64.4256C64.3331 26.4496 64.2868 26.4496 64.2406 26.4496ZM88.5663 35.9764C88.5663 36.6933 87.9883 37.2713 87.2714 37.2713C87.0633 37.2713 86.8552 37.2251 86.6702 37.1326C86.5546 37.0632 86.439 36.9939 86.3465 36.8782C86.3003 36.832 86.254 36.7626 86.2078 36.7164C86.1846 36.6933 86.1384 36.6239 86.1153 36.5314C86.069 36.4158 85.9765 36.1845 85.9765 36.1845L85.5603 35.0515H81.8374C81.8374 35.0515 81.6293 35.6296 81.4675 36.0458C81.4212 36.1845 81.375 36.3002 81.3287 36.3927C81.3056 36.462 81.2362 36.6239 81.19 36.6701C81.1438 36.7395 81.0975 36.7858 81.0513 36.8551C80.82 37.1326 80.4732 37.2945 80.0801 37.2945C79.3632 37.2945 78.7852 36.7164 78.7852 35.9996C78.7852 35.8377 78.8083 35.6758 78.8777 35.514C78.8777 35.4908 82.4618 26.4727 82.4618 26.4727H84.1729C84.196 26.4727 84.2423 26.4727 84.2654 26.4727C84.3116 26.4727 84.3348 26.4727 84.3579 26.4959C84.4041 26.4959 84.4504 26.519 84.4966 26.5421C84.5429 26.5652 84.5891 26.5884 84.6354 26.6115C84.7047 26.6577 84.7741 26.704 84.8435 26.7502C84.9129 26.8196 84.9591 26.889 85.0285 26.9815C85.0516 27.0277 85.0978 27.1202 85.0978 27.1202L88.2889 35.144C88.2889 35.144 88.4738 35.5602 88.497 35.6527C88.5432 35.7452 88.5663 35.8608 88.5663 35.9764ZM84.7741 33.1091L83.6873 30.1494L82.5774 33.086H84.7741V33.1091ZM28.7 35.6296C28.7231 35.7452 28.7462 35.8608 28.7462 35.9764C28.7462 36.6933 28.1681 37.2713 27.4513 37.2713C27.2432 37.2713 27.0351 37.2251 26.8501 37.1326C26.7345 37.0632 26.6189 36.9939 26.5264 36.8782C26.4801 36.832 26.4339 36.7626 26.3876 36.7164C26.3645 36.6933 26.3183 36.6239 26.2951 36.5314C26.2489 36.4158 26.1564 36.1845 26.1564 36.1845L25.7402 35.0515H22.0173C22.0173 35.0515 21.8092 35.6296 21.6473 36.0458C21.6011 36.1845 21.5548 36.3002 21.5086 36.3927C21.4855 36.462 21.4161 36.6239 21.3699 36.6701C21.3236 36.7395 21.2774 36.7858 21.2311 36.8551C20.9999 37.1326 20.653 37.2945 20.2599 37.2945C19.5431 37.2945 18.965 36.7164 18.965 35.9996C18.965 35.8377 18.9882 35.6758 19.0575 35.514C19.0575 35.4908 22.6648 26.4727 22.6648 26.4727H24.3759C24.399 26.4727 24.4453 26.4727 24.4684 26.4727C24.5146 26.4727 24.5378 26.4727 24.5609 26.4959C24.6071 26.4959 24.6534 26.519 24.6996 26.5421C24.7459 26.5652 24.7921 26.5884 24.8384 26.6115C24.9077 26.6577 24.9771 26.704 25.0465 26.7502C25.1158 26.8196 25.1621 26.889 25.2315 26.9815C25.2546 27.0277 25.3008 27.1202 25.3008 27.1202L28.4919 35.144C28.4919 35.0977 28.6768 35.514 28.7 35.6296ZM24.9771 33.1091L23.8672 30.1494L22.7573 33.086H24.9771V33.1091ZM48.4704 26.4496H48.4473H48.4011H41.0247V27.9989V28.0451C41.0247 28.1145 41.0247 28.1607 41.0478 28.2301C41.1172 28.6463 41.4409 28.9469 41.8572 29.0394C41.9034 29.0394 41.9496 29.0626 41.9959 29.0626C42.019 29.0626 42.0653 29.0626 42.0653 29.0626H44.1001V37.0864H45.6494H45.6956C45.765 37.0864 45.8113 37.0864 45.8806 37.0632C46.2968 36.9939 46.5974 36.6701 46.6899 36.2539C46.6899 36.2077 46.7131 36.1614 46.7131 36.1152C46.7131 36.0921 46.7131 36.0458 46.7131 36.0458V29.0626H48.2854C48.2854 29.0626 48.3548 29.0626 48.3779 29.0626C48.4011 29.0626 48.4242 29.0626 48.4473 29.0626C48.4936 29.0626 48.5398 29.0626 48.5629 29.0626C49.2104 28.9932 49.7191 28.4382 49.7191 27.7676C49.7191 27.0277 49.1641 26.4727 48.4704 26.4496Z" fill="white"/>
<path d="M58.3963 55.9961H37.5977L47.997 77.5947L58.3963 55.9961Z" fill="#EC1C24"/>
</svg>
