<svg width="64" height="52" viewBox="0 0 64 52" fill="none" xmlns="http://www.w3.org/2000/svg">
<path fill-rule="evenodd" clip-rule="evenodd" d="M15.8817 6.07081L31.992 1.60001L48.1332 6.07081C55.9802 8.24454 62.9331 12.7153 62.9331 20.8399C62.9331 28.9644 55.9802 33.4352 48.1332 35.6089L31.992 40.0643L15.8817 35.5935C8.01928 33.4198 1.06641 28.949 1.06641 20.8245C1.06641 12.6999 8.01928 8.22913 15.8817 6.07081Z" fill="#ED1C24"/>
<path d="M34.3353 13.4091C34.1195 14.2724 33.5182 14.7812 32.7628 15.0432C32.7011 15.0587 32.6395 15.0741 32.5778 15.0895C32.5315 15.1049 32.4853 15.1049 32.4391 15.1203C32.4082 15.1203 32.3465 15.1357 32.3157 15.1357C32.2386 15.1512 32.1461 15.1512 32.1307 15.1512C32.0845 15.1512 28.6466 15.5057 28.6466 15.5057V15.4903L29.3095 12.037C29.3095 12.037 29.3403 11.8674 29.3557 11.8366C29.5562 10.9579 30.0341 10.4645 30.7124 10.1562C30.8511 10.0945 30.9745 10.0483 31.1132 10.0174C31.1903 10.002 31.3291 9.97119 31.4524 9.95578C31.5603 9.94036 31.9766 9.90953 31.9766 9.90953L35.0599 9.6012V9.61661L34.397 13.0699C34.397 13.0699 34.3661 13.2241 34.3661 13.2549C34.3661 13.2549 34.3507 13.3012 34.3507 13.3474C34.3507 13.3628 34.3507 13.3937 34.3353 13.4091ZM37.8194 13.5633C38.2973 13.4091 38.6673 13.0853 38.8061 12.5458C38.8061 12.5458 38.8061 12.5149 38.8215 12.4995C38.8215 12.4687 38.8369 12.4533 38.8369 12.4378C38.8369 12.4224 38.8523 12.3299 38.8523 12.3299L39.2686 10.1562V10.1408L37.3261 10.3258C37.3261 10.3258 37.064 10.3566 36.9869 10.3566C36.9099 10.372 36.8174 10.3874 36.7711 10.3874C36.6786 10.4183 36.6015 10.4337 36.5244 10.4799C36.0928 10.6804 35.7999 10.9887 35.6765 11.5437C35.6765 11.5591 35.6457 11.667 35.6457 11.667L35.2295 13.8408V13.8562C35.2295 13.8562 37.3878 13.6403 37.4186 13.6403C37.4186 13.6403 37.4803 13.6403 37.5265 13.6249C37.5574 13.6249 37.5882 13.6095 37.6036 13.6095C37.6344 13.6095 37.6653 13.5941 37.6807 13.5941C37.7423 13.5941 37.7886 13.5787 37.8194 13.5633ZM28.0607 13.6249C28.0607 13.6249 28.0607 13.5941 28.0762 13.5787C28.0762 13.5478 28.0916 13.517 28.0916 13.517C28.0916 13.5016 28.107 13.4091 28.107 13.4091L28.5232 11.2354V11.2199L26.5808 11.4049C26.5808 11.4049 26.3187 11.4358 26.2416 11.4358C26.1645 11.4512 26.072 11.4666 26.0258 11.4666C25.9333 11.482 25.8562 11.5128 25.7791 11.5591C25.4091 11.7287 25.1316 11.9908 24.9774 12.4224C24.962 12.4841 24.9312 12.5612 24.9158 12.6228C24.9158 12.6383 24.8849 12.7462 24.8849 12.7462L24.4687 14.9199C24.4687 14.9199 26.627 14.7041 26.6578 14.7041C26.6578 14.7041 26.7195 14.7041 26.7658 14.6887C26.7966 14.6887 26.8274 14.6732 26.8428 14.6732C26.8737 14.6732 26.9045 14.6578 26.9199 14.6578C26.9508 14.6424 26.997 14.6424 27.0278 14.627C27.552 14.4882 27.922 14.1645 28.0607 13.6249ZM34.6436 17.6332C34.6282 17.6332 34.5974 17.6332 34.582 17.6332C34.2736 17.6795 34.027 17.9416 34.0115 18.2653V18.2961V24.694H35.0444H35.0907C35.1215 24.694 35.1524 24.694 35.1832 24.6786C35.4607 24.6323 35.6919 24.4011 35.7382 24.1236C35.7382 24.0928 35.7382 24.0774 35.7382 24.0465C35.7382 24.0311 35.7382 23.9694 35.7382 23.9694V17.6332H34.6745C34.6899 17.6332 34.659 17.6332 34.6436 17.6332ZM25.2241 17.6332C24.9466 17.6795 24.7308 17.8799 24.6845 18.1574C24.6845 18.1882 24.6691 18.2345 24.6691 18.2653C24.6691 18.2961 24.6691 18.3886 24.6691 18.3886V21.5028C24.6691 21.5028 22.11 18.4811 21.6783 17.957C21.632 17.9107 21.5704 17.8336 21.555 17.8182C21.4779 17.7411 21.37 17.6795 21.262 17.6486C21.2158 17.6332 21.1695 17.6332 21.1079 17.6332C21.1079 17.6332 21.0925 17.6332 21.077 17.6332H20.0287V24.694H21.0925C21.0925 24.694 21.0925 24.694 21.1079 24.694C21.4779 24.694 21.7708 24.4011 21.7708 24.0311V24.0157V20.7474L24.592 24.0774C24.592 24.0774 24.9003 24.4473 25.0237 24.5398C25.1624 24.6478 25.3474 24.7094 25.5324 24.7094C25.9641 24.7094 26.3187 24.4011 26.3803 24.0003C26.3803 23.9849 26.3958 23.954 26.3958 23.9232C26.3958 23.8924 26.3958 23.769 26.3958 23.769V17.6332H25.3474C25.2858 17.6332 25.2549 17.6332 25.2241 17.6332ZM10.7325 17.6332C10.5475 17.6332 10.3625 17.7103 10.2546 17.8491L8.34296 19.992L6.46214 17.8799C6.35422 17.7411 6.16922 17.6486 5.98422 17.6332C5.96881 17.6332 5.93798 17.6332 5.92256 17.6332H5.87631C5.66048 17.6332 4.88965 17.6332 4.88965 17.6332V24.694H5.93798C5.93798 24.694 5.93798 24.694 5.95339 24.694C6.32339 24.694 6.6163 24.4011 6.6163 24.0311V20.1615L8.34296 22.104L10.085 20.1615V24.0311C10.085 24.3857 10.3625 24.6786 10.7171 24.694C10.7325 24.694 10.8096 24.694 10.8096 24.694H11.7963V17.6332C11.7963 17.6332 11.0563 17.6332 10.8096 17.6332H10.7325ZM47.4548 19.6528C47.794 19.3599 48.3027 19.1749 48.8269 19.1749C49.0273 19.1749 49.2123 19.1903 49.4281 19.2211C49.4898 19.2365 49.721 19.2828 49.8444 19.3136C50.0139 19.3599 50.1681 19.4215 50.3377 19.4832C50.3685 19.4986 50.461 19.5295 50.5227 19.5603C50.5844 19.5911 50.6306 19.6065 50.6614 19.622C50.6923 19.6374 50.7231 19.6374 50.7385 19.6528C50.8002 19.6682 50.8773 19.6836 50.9543 19.6836C51.4323 19.6836 51.8023 19.2982 51.8023 18.8357C51.8023 18.6199 51.7252 18.4195 51.5864 18.2653C51.5402 18.2191 51.4939 18.1574 51.4323 18.1266C51.3706 18.0803 51.2473 18.0341 51.201 18.0032C51.0777 17.9416 50.9543 17.8953 50.8156 17.8336C50.6152 17.7566 50.3994 17.6795 50.1681 17.6332C50.0448 17.6024 49.8598 17.5561 49.7827 17.5561C49.6131 17.5253 49.4435 17.5099 49.2739 17.4945C49.1198 17.4791 48.9656 17.4791 48.8114 17.4791C47.871 17.4791 47.0077 17.8028 46.3294 18.3578C45.5123 19.0361 45.019 20.0536 45.019 21.179C45.019 21.8265 45.1731 22.4432 45.466 22.9828C45.759 23.5224 46.1906 23.9849 46.7302 24.3086C47.3315 24.6786 48.0252 24.879 48.7806 24.879C49.0889 24.879 49.4127 24.8482 49.7056 24.7865C49.906 24.7403 50.1681 24.6786 50.3839 24.6015C50.6768 24.4936 50.8927 24.4011 51.016 24.324C51.1856 24.2161 51.3089 24.1082 51.4168 23.9848C51.5093 23.8769 51.571 23.769 51.6173 23.6611C51.6789 23.5069 51.7098 23.3682 51.7098 23.2449C51.7252 23.1061 51.7252 20.5778 51.7252 20.5778H48.6573V21.2099C48.6573 21.2099 48.6573 21.3486 48.6573 21.3795C48.6573 21.4103 48.6727 21.4411 48.6727 21.4719C48.7344 21.7186 48.9502 21.9036 49.2123 21.9499C49.2277 21.9499 49.2894 21.9653 49.2894 21.9653H49.3356H49.9831V22.9674C49.8752 22.9982 49.5823 23.0907 49.3664 23.1369C49.1506 23.1832 48.9194 23.1986 48.7498 23.1986C48.3181 23.1986 47.9327 23.0753 47.5935 22.8749C47.4548 22.7978 47.3315 22.6899 47.2235 22.5819C47.1002 22.4586 47.0077 22.3199 46.9306 22.1811C46.7765 21.9036 46.684 21.5644 46.684 21.1945C46.7456 20.547 47.0077 20.0228 47.4548 19.6528ZM42.8298 17.6332C42.5523 17.6795 42.3365 17.8799 42.2902 18.1574C42.2902 18.1882 42.2748 18.2345 42.2748 18.2653C42.2748 18.2961 42.2748 18.3886 42.2748 18.3886V21.5028C42.2748 21.5028 39.7157 18.4811 39.284 17.957C39.2378 17.9107 39.1761 17.8336 39.1607 17.8182C39.0836 17.7411 38.9757 17.6795 38.8678 17.6486C38.8215 17.6332 38.7753 17.6332 38.7136 17.6332C38.7136 17.6332 38.6982 17.6332 38.6828 17.6332H37.6344V24.694H38.6982C38.6982 24.694 38.6982 24.694 38.7136 24.694C39.0836 24.694 39.3765 24.4011 39.3765 24.0311V24.0157V20.7474L42.1977 24.0774C42.1977 24.0774 42.5061 24.4473 42.6294 24.5398C42.7682 24.6478 42.9531 24.7094 43.1381 24.7094C43.5698 24.7094 43.9244 24.4011 43.9861 24.0003C43.9861 23.9849 44.0015 23.954 44.0015 23.9232C44.0015 23.8924 44.0015 23.769 44.0015 23.769V17.6332H42.9532C42.8915 17.6332 42.8606 17.6332 42.8298 17.6332ZM59.048 23.9848C59.048 24.4628 58.6626 24.8482 58.1847 24.8482C58.046 24.8482 57.9072 24.8173 57.7839 24.7557C57.7068 24.7094 57.6297 24.6632 57.5681 24.5861C57.5372 24.5553 57.5064 24.509 57.4756 24.4782C57.4601 24.4628 57.4293 24.4165 57.4139 24.3548C57.3831 24.2778 57.3214 24.1236 57.3214 24.1236L57.0439 23.3682H54.5618C54.5618 23.3682 54.4231 23.7536 54.3152 24.0311C54.2843 24.1236 54.2535 24.2007 54.2227 24.2623C54.2072 24.3086 54.161 24.4165 54.1302 24.4473C54.0993 24.4936 54.0685 24.5244 54.0377 24.5707C53.8835 24.7557 53.6522 24.8636 53.3902 24.8636C52.9123 24.8636 52.5268 24.4782 52.5268 24.0003C52.5268 23.8924 52.5423 23.7844 52.5885 23.6765C52.5885 23.6611 54.9781 17.6486 54.9781 17.6486H56.1189C56.1343 17.6486 56.1651 17.6486 56.1806 17.6486C56.2114 17.6486 56.2268 17.6486 56.2422 17.6641C56.2731 17.6641 56.3039 17.6795 56.3347 17.6949C56.3656 17.7103 56.3964 17.7257 56.4272 17.7411C56.4735 17.772 56.5197 17.8028 56.566 17.8336C56.6122 17.8799 56.6431 17.9261 56.6893 17.9878C56.7047 18.0186 56.7356 18.0803 56.7356 18.0803L58.863 23.4299C58.863 23.4299 58.9864 23.7074 59.0018 23.769C59.0326 23.8307 59.048 23.9078 59.048 23.9848ZM56.5197 22.0732L55.7952 20.0999L55.0552 22.0578H56.5197V22.0732ZM19.1346 23.7536C19.15 23.8307 19.1654 23.9078 19.1654 23.9848C19.1654 24.4628 18.78 24.8482 18.3021 24.8482C18.1633 24.8482 18.0246 24.8173 17.9012 24.7557C17.8241 24.7094 17.7471 24.6632 17.6854 24.5861C17.6546 24.5553 17.6237 24.509 17.5929 24.4782C17.5775 24.4628 17.5466 24.4165 17.5312 24.3548C17.5004 24.2778 17.4387 24.1236 17.4387 24.1236L17.1612 23.3682H14.6792C14.6792 23.3682 14.5404 23.7536 14.4325 24.0311C14.4017 24.1236 14.3708 24.2007 14.34 24.2623C14.3246 24.3086 14.2783 24.4165 14.2475 24.4473C14.2167 24.4936 14.1858 24.5244 14.155 24.5707C14.0008 24.7557 13.7696 24.8636 13.5075 24.8636C13.0296 24.8636 12.6442 24.4782 12.6442 24.0003C12.6442 23.8924 12.6596 23.7844 12.7058 23.6765C12.7058 23.6611 15.1108 17.6486 15.1108 17.6486H16.2517C16.2671 17.6486 16.2979 17.6486 16.3133 17.6486C16.3442 17.6486 16.3596 17.6486 16.375 17.6641C16.4058 17.6641 16.4367 17.6795 16.4675 17.6949C16.4983 17.7103 16.5292 17.7257 16.56 17.7411C16.6062 17.772 16.6525 17.8028 16.6987 17.8336C16.745 17.8799 16.7758 17.9261 16.8221 17.9878C16.8375 18.0186 16.8683 18.0803 16.8683 18.0803L18.9958 23.4299C18.9958 23.399 19.1191 23.6765 19.1346 23.7536ZM16.6525 22.0732L15.9125 20.0999L15.1725 22.0578H16.6525V22.0732ZM32.3157 17.6332H32.3003H32.2695H27.3516V18.6661V18.697C27.3516 18.7432 27.3516 18.7741 27.367 18.8203C27.4133 19.0978 27.6291 19.2982 27.9066 19.3599C27.9374 19.3599 27.9682 19.3753 27.9991 19.3753C28.0145 19.3753 28.0453 19.3753 28.0453 19.3753H29.402V24.7248H30.4349H30.4657C30.512 24.7248 30.5428 24.7248 30.5891 24.7094C30.8666 24.6632 31.067 24.4473 31.1286 24.1698C31.1286 24.139 31.1441 24.1082 31.1441 24.0774C31.1441 24.0619 31.1441 24.0311 31.1441 24.0311V19.3753H32.1924C32.1924 19.3753 32.2386 19.3753 32.2541 19.3753C32.2695 19.3753 32.2849 19.3753 32.3003 19.3753C32.3311 19.3753 32.362 19.3753 32.3774 19.3753C32.809 19.329 33.1482 18.9591 33.1482 18.512C33.1482 18.0186 32.7782 17.6486 32.3157 17.6332Z" fill="white"/>
<path d="M38.9331 37.3333H25.0664L31.9997 51.7333L38.9331 37.3333Z" fill="#EC1C24"/>
</svg>
