<svg width="64" height="64" viewBox="0 0 64 64" fill="none" xmlns="http://www.w3.org/2000/svg">
<path d="M32.0007 17.334C33.7688 17.334 35.4645 18.0364 36.7147 19.2866C37.9649 20.5368 38.6673 22.2325 38.6673 24.0007C38.6673 24.8761 38.4949 25.743 38.1598 26.5519C37.8248 27.3607 37.3338 28.0956 36.7147 28.7147C36.0956 29.3338 35.3607 29.8248 34.5519 30.1598C33.743 30.4949 32.8761 30.6673 32.0007 30.6673C30.2325 30.6673 28.5368 29.9649 27.2866 28.7147C26.0364 27.4645 25.334 25.7688 25.334 24.0007C25.334 22.2325 26.0364 20.5368 27.2866 19.2866C28.5368 18.0364 30.2325 17.334 32.0007 17.334ZM32.0007 5.33398C36.9514 5.33398 41.6993 7.30065 45.2 10.8013C48.7007 14.302 50.6673 19.0499 50.6673 24.0007C50.6673 38.0007 32.0007 58.6673 32.0007 58.6673C32.0007 58.6673 13.334 38.0007 13.334 24.0007C13.334 19.0499 15.3006 14.302 18.8013 10.8013C22.302 7.30065 27.0499 5.33398 32.0007 5.33398ZM32.0007 10.6673C28.4644 10.6673 25.073 12.0721 22.5726 14.5726C20.0721 17.073 18.6673 20.4644 18.6673 24.0007C18.6673 26.6673 18.6673 32.0006 32.0007 49.894C45.334 32.0006 45.334 26.6673 45.334 24.0007C45.334 20.4644 43.9292 17.073 41.4287 14.5726C38.9283 12.0721 35.5369 10.6673 32.0007 10.6673Z" fill="#EC1C24"/>
</svg>
