<svg width="24" height="24" viewBox="0 0 24 24" fill="none" xmlns="http://www.w3.org/2000/svg">
    <path d="M12.5415 14.5017C12.5181 14.7834 12.2826 15 12 15C11.7174 15 11.4819 14.7834 11.4585 14.5017L11.083 9.99655C11.0383 9.46009 11.4617 9 12 9C12.5383 9 12.9617 9.46009 12.917 9.99655L12.5415 14.5017ZM13 17C13 17.5523 12.5523 18 12 18C11.4477 18 11 17.5523 11 17C11 16.4477 11.4477 16 12 16C12.5523 16 13 16.4477 13 17ZM3.17255 17.2474C2.20764 18.9141 3.41029 21 5.33612 21H18.6639C20.5897 21 21.7924 18.9141 20.8274 17.2474L14.1636 5.73706C13.2007 4.07385 10.7993 4.07386 9.83643 5.73707L3.17255 17.2474Z" fill="currentColor" />
</svg>
    