<svg width="24" height="24" viewBox="0 0 24 24" fill="none" xmlns="http://www.w3.org/2000/svg">
    <g clip-path="url(#clip0)">
        <path d="M13.2863 23.9629C13.2257 23.9562 13.1672 23.9374 13.114 23.9076C13.0609 23.8779 13.0142 23.8377 12.9769 23.7896C12.5932 23.3771 12.2075 22.9738 11.8197 22.5799C11.0586 21.7909 10.2728 20.9741 9.53329 20.1418C6.99314 17.3851 4.77475 12.5616 6.87247 8.03816C7.91205 5.62176 9.61374 3.41576 12.2312 1.09527C12.4262 0.908283 12.6005 0.700819 12.751 0.476475C12.816 0.389844 12.8779 0.303213 12.9429 0.222769C12.9795 0.164723 13.0289 0.11585 13.0874 0.0799122C13.1458 0.0439742 13.2118 0.0219289 13.2801 0.0154724C13.3502 0.0223769 13.4174 0.0470202 13.4753 0.0870782C13.5332 0.127136 13.58 0.181288 13.6112 0.244427C14.8681 2.13244 15.8641 4.18167 16.5721 6.33647C17.1321 8.11242 17.5003 10.0492 17.4817 11.1198C17.4632 14.5355 16.931 17.1932 15.7584 19.7334C15.3036 20.7173 14.7621 21.6764 14.2392 22.6077C14.035 22.9666 13.8339 23.3255 13.6204 23.6875C13.5493 23.8701 13.4193 23.9629 13.2863 23.9629ZM13.2863 1.06743L13.2306 1.19737C13.2055 1.24027 13.1887 1.2875 13.1811 1.3366C13.1997 1.87164 13.0618 2.40049 12.7843 2.8583C12.5067 3.3161 12.1016 3.68296 11.6186 3.91389C11.2447 4.09138 10.9408 4.38874 10.7553 4.75872C10.5697 5.1287 10.5132 5.55009 10.5945 5.95591C10.6638 6.4222 10.6151 6.89841 10.453 7.34105C10.2909 7.7837 10.0204 8.17866 9.66633 8.48988C9.00422 9.10868 8.88356 9.81411 9.28887 10.7145C9.48278 11.1224 9.58339 11.5684 9.58339 12.0201C9.58339 12.4718 9.48278 12.9178 9.28887 13.3258C8.89284 14.1983 9.01041 14.8882 9.66324 15.4916C10.0161 15.8145 10.285 16.2184 10.4467 16.6686C10.6084 17.1187 10.6581 17.6014 10.5914 18.075C10.5625 18.3953 10.5855 18.7181 10.6595 19.0311C10.7894 19.5942 11.2443 19.8726 11.6867 20.1418C11.7733 20.1944 11.86 20.247 11.9435 20.3027C12.8717 20.8658 13.1161 21.6888 13.2182 22.8243C14.8797 21.5867 17.0269 14.8418 16.8351 11.4075C16.6433 7.8123 15.4737 4.42749 13.277 1.06124L13.2863 1.06743ZM12.389 1.92446C10.0098 4.01599 8.36686 6.20962 7.38607 8.62911C4.86448 14.5355 9.9943 19.9995 12.4138 22.1436C12.2931 21.4475 12.0827 21.1659 11.4237 20.7792C10.2511 20.0923 9.787 19.2322 9.96645 18.0812C10.023 17.6892 9.98046 17.2893 9.84263 16.918C9.70481 16.5467 9.47613 16.2158 9.17749 15.9557C8.31736 15.0955 8.13791 14.1983 8.63295 13.2175C8.8315 12.8163 8.93039 12.3731 8.92123 11.9255C8.91207 11.4779 8.79514 11.0392 8.58035 10.6464C8.37124 10.2588 8.29933 9.8119 8.37628 9.37829C8.45323 8.94467 8.67453 8.5498 9.00422 8.25783C9.37251 7.9214 9.65278 7.49986 9.82052 7.03009C9.98826 6.56031 10.0384 6.05659 9.96645 5.56298C9.91009 5.17745 9.97151 4.78388 10.1427 4.43386C10.3138 4.08383 10.5867 3.79367 10.9256 3.60139C11.6186 3.22702 11.9961 2.72889 12.4726 2.09772L12.5685 1.97087L12.389 1.92446Z" fill="currentColor" />
        <path d="M13.2802 0.0773425C13.3459 0.0830965 13.4089 0.105795 13.4631 0.143217C13.5174 0.180639 13.561 0.231502 13.5896 0.290827C14.8392 2.17044 15.8338 4.20756 16.5475 6.34884C17.1292 8.20523 17.4757 10.0833 17.4571 11.1198C17.4231 14.715 16.8445 17.2861 15.7152 19.7179C15.0964 21.0731 14.3105 22.3571 13.5896 23.6689C13.5061 23.8236 13.4009 23.9226 13.2802 23.9226C13.224 23.9175 13.1695 23.9008 13.12 23.8737C13.0705 23.8465 13.0271 23.8095 12.9925 23.7649C11.8508 22.5489 10.6689 21.3639 9.55509 20.1047C6.61272 16.9117 4.98219 12.2057 6.90974 8.06909C8.09783 5.28451 10.0316 3.11872 12.2592 1.13858C12.5221 0.86992 12.7612 0.579033 12.9739 0.269169C13.0077 0.215917 13.0531 0.170997 13.1066 0.137775C13.1602 0.104554 13.2206 0.0838932 13.2833 0.0773425H13.2802ZM13.1843 22.8893C14.8705 21.7445 17.0704 14.9408 16.8754 11.4013C16.6682 7.63903 15.4058 4.22328 13.271 0.977691C13.1812 1.19736 13.1317 1.26543 13.1348 1.3304C13.1533 1.85903 13.0166 2.38151 12.7417 2.83342C12.4669 3.28534 12.0657 3.64694 11.5878 3.87366C11.2084 4.05603 10.8999 4.35894 10.7107 4.73507C10.5216 5.11121 10.4622 5.53941 10.5421 5.95281C10.6124 6.41228 10.5665 6.88203 10.4087 7.31923C10.2509 7.75643 9.98616 8.14718 9.63863 8.45584C8.92083 9.12414 8.87132 9.87288 9.25498 10.7237C9.44666 11.1268 9.54612 11.5676 9.54612 12.0139C9.54612 12.4603 9.44666 12.901 9.25498 13.3041C8.8806 14.124 8.93011 14.8511 9.63863 15.5225C9.98805 15.8406 10.2551 16.2388 10.4167 16.6829C10.5784 17.1269 10.6299 17.6036 10.5668 18.0719C10.5368 18.3973 10.5598 18.7254 10.6349 19.0434C10.7958 19.7334 11.4177 19.9995 11.9375 20.3367C12.9028 20.9339 13.1101 21.8373 13.1967 22.8985L13.1843 22.8893ZM12.482 22.2457C12.3644 21.4629 12.1726 21.1597 11.4548 20.7451C10.4307 20.1449 9.82118 19.3405 10.0161 18.0874C10.0751 17.6884 10.033 17.281 9.8935 16.9026C9.75402 16.5242 9.52169 16.1868 9.21785 15.9216C8.43507 15.1388 8.15661 14.2663 8.6795 13.2237C8.88178 12.8175 8.98265 12.3683 8.97349 11.9146C8.96433 11.4609 8.84541 11.0162 8.6269 10.6185C8.42314 10.2405 8.35233 9.80503 8.42584 9.38196C8.49934 8.95888 8.7129 8.57279 9.03221 8.28567C9.40696 7.94368 9.69187 7.51477 9.86182 7.03674C10.0318 6.55871 10.0816 6.04621 10.0068 5.5444C9.9496 5.16702 10.0076 4.78116 10.1732 4.43726C10.3388 4.09337 10.6043 3.80744 10.935 3.61685C11.6961 3.20845 12.0736 2.65153 12.6243 1.92754C12.4294 1.89351 12.3768 1.88113 12.3582 1.88113C10.2203 3.75608 8.4227 5.93425 7.33362 8.60744C5.1307 13.7991 8.65165 18.8949 12.4634 22.2457H12.482ZM13.2802 -0.00619507C13.2062 -8.05324e-05 13.1347 0.023246 13.0713 0.0619236C13.0079 0.100601 12.9544 0.153559 12.9152 0.216571C12.8471 0.300109 12.7852 0.383647 12.7202 0.470278C12.5719 0.69453 12.3997 0.902012 12.2066 1.08907C9.58294 3.39718 7.87816 5.61247 6.83858 8.03815C4.73158 12.5616 6.95615 17.4005 9.4994 20.1696C10.242 21.0019 11.0278 21.8187 11.7889 22.6108C12.1757 23.0099 12.5624 23.4121 12.943 23.8174C12.985 23.8695 13.037 23.9125 13.096 23.9439C13.1551 23.9752 13.2198 23.9943 13.2864 24C13.4318 24 13.5618 23.901 13.667 23.6906C13.8681 23.3286 14.0692 22.9697 14.2858 22.6108C14.8087 21.6826 15.3501 20.7173 15.8049 19.7334C16.9683 17.2056 17.5004 14.5355 17.5221 11.1321C17.5221 10.0431 17.1694 8.1155 16.5939 6.33646C15.8876 4.18359 14.8948 2.13556 13.6422 0.247511C13.6089 0.178163 13.5579 0.118797 13.4943 0.0753579C13.4308 0.0319187 13.357 0.00593002 13.2802 -6.96722e-06V-0.00619507ZM13.24 22.7531C13.1348 21.6424 12.8657 20.8349 11.956 20.2779L11.693 20.1047C11.2413 19.8293 10.8112 19.5663 10.6844 19.0218C10.6113 18.7118 10.5894 18.392 10.6194 18.075C10.6854 17.5964 10.6345 17.109 10.4713 16.6543C10.3081 16.1996 10.0372 15.7911 9.68195 15.4637C9.04149 14.8635 8.92701 14.1859 9.31686 13.332C9.51193 12.9188 9.6131 12.4677 9.6131 12.0108C9.6131 11.554 9.51193 11.1028 9.31686 10.6897C8.91773 9.80481 9.0353 9.11176 9.68195 8.52391C10.0393 8.20778 10.3115 7.807 10.4737 7.35833C10.6358 6.90965 10.6828 6.42743 10.6101 5.9559C10.532 5.55797 10.5884 5.14536 10.7705 4.78299C10.9525 4.42061 11.2498 4.12903 11.6157 3.9541C12.1059 3.7203 12.5171 3.34823 12.7986 2.8837C13.08 2.41918 13.2195 1.88247 13.1998 1.33969C13.2077 1.29741 13.2223 1.25667 13.2431 1.21902L13.271 1.15405C15.4367 4.49555 16.5877 7.85561 16.7857 11.4261C16.9714 14.8294 14.8829 21.4258 13.2369 22.7655L13.24 22.7531ZM12.3459 22.0415C9.89852 19.851 4.92031 14.4613 7.3955 8.63838C8.37938 6.22817 10.0068 4.04382 12.3768 1.96158H12.3985L12.482 1.97705L12.4232 2.0544C11.9529 2.67319 11.5786 3.17751 10.8948 3.54569C10.5487 3.74487 10.2712 4.04429 10.0989 4.40444C9.92655 4.7646 9.86748 5.16854 9.92946 5.56297C10.0061 6.05286 9.95935 6.55413 9.7935 7.02142C9.62766 7.48871 9.34792 7.90728 8.97961 8.23926C8.6439 8.53642 8.41822 8.93812 8.33906 9.37942C8.2599 9.82071 8.33188 10.2758 8.54336 10.6711C8.75718 11.058 8.87396 11.4909 8.88366 11.9328C8.89336 12.3747 8.79569 12.8123 8.59905 13.2082C8.09473 14.2075 8.28965 15.1172 9.14978 15.9928C9.44396 16.2486 9.66942 16.5741 9.80561 16.9394C9.94179 17.3047 9.98437 17.6983 9.92946 18.0843C9.74692 19.2538 10.2141 20.1263 11.4022 20.8225C12.021 21.1814 12.2345 21.4413 12.3551 22.0601L12.3459 22.0415Z" fill="currentColor" />
        <path d="M9.83662 10.7299C9.81196 10.7329 9.78703 10.7329 9.76237 10.7299C9.58601 10.7052 9.51485 10.3865 9.47463 10.1452V10.1111C9.41298 9.90481 9.40245 9.68658 9.44396 9.47529C9.48546 9.26399 9.57775 9.06596 9.71286 8.89829L9.73762 8.86116C9.81187 8.74978 9.92325 8.5827 10.0718 8.5827H10.1027C10.2853 8.61364 10.375 8.8921 10.3626 9.01895C10.3502 9.14581 10.3348 9.37476 10.3255 9.57278C10.2976 10.1421 10.2791 10.7299 9.83662 10.7299Z" fill="currentColor" />
        <path d="M10.0624 8.61364H10.0872C10.2419 8.64149 10.3285 8.88591 10.3161 9.00967C10.2264 9.62847 10.3842 10.6897 9.83346 10.6897H9.76539C9.57666 10.6619 9.51787 10.1668 9.5055 10.1018C9.4428 9.90079 9.43089 9.68732 9.47084 9.48054C9.5108 9.27375 9.60136 9.08009 9.73445 8.91685C9.80252 8.82094 9.92009 8.60746 10.0624 8.60746V8.61364ZM10.0624 8.53011C9.89534 8.53011 9.77467 8.70956 9.69732 8.8395L9.67257 8.87354C9.535 9.0448 9.44092 9.2468 9.39836 9.46231C9.35579 9.67782 9.36601 9.90043 9.42815 10.1111V10.1421C9.47146 10.4143 9.54881 10.733 9.73754 10.7609H9.81799C10.3006 10.7609 10.3223 10.1235 10.3409 9.5635C10.3426 9.38038 10.355 9.19753 10.378 9.01586C10.378 8.86426 10.2914 8.56723 10.0872 8.5332H10.0469L10.0624 8.53011Z" fill="currentColor" />
        <path d="M10.0779 15.5163C9.86442 15.5163 9.49005 14.8387 9.45911 14.6964C9.35866 14.3795 9.36958 14.0378 9.49005 13.728L9.53646 13.694H9.49933C9.51789 13.598 9.57049 13.3474 9.76232 13.3351C9.97889 13.3351 10.0717 13.6445 10.1181 13.762C10.2338 14.1664 10.3115 14.5808 10.3502 14.9996C10.3656 15.1667 10.3069 15.4916 10.0996 15.5256L10.0779 15.5163Z" fill="currentColor" />
        <path d="M9.76849 13.366C9.93557 13.366 10.0377 13.6166 10.0779 13.7651C10.1944 14.1693 10.2721 14.5837 10.3099 15.0027C10.3099 15.1574 10.2697 15.4575 10.0903 15.4885C9.91081 15.4885 9.53954 14.8418 9.5055 14.6995C9.4065 14.2942 9.41578 14.2725 9.54263 13.7218C9.5581 13.6599 9.59832 13.3846 9.77468 13.3753L9.76849 13.366ZM9.77468 13.2979C9.55501 13.2979 9.49932 13.5826 9.46528 13.6878V13.7063V13.728C9.3441 14.044 9.33212 14.3914 9.43125 14.715C9.46219 14.8449 9.84275 15.5658 10.0934 15.5658H10.1181C10.3625 15.5256 10.4275 15.1605 10.4028 14.9996C10.3626 14.5807 10.2839 14.1664 10.1676 13.762C10.115 13.6073 10.0005 13.2979 9.76849 13.2979H9.77468Z" fill="currentColor" />
        <path d="M12.0394 19.9686C11.8813 19.9277 11.7316 19.8597 11.5969 19.7674C11.3747 19.6278 11.1941 19.4308 11.0744 19.1972C10.9546 18.9637 10.9 18.7021 10.9163 18.4401C10.9163 18.3844 10.941 18.1524 11.0462 18.0998C11.0908 18.0794 11.1396 18.0698 11.1885 18.0719C11.2628 18.0719 11.3958 18.0905 11.433 18.1586C11.5382 18.3473 11.6341 18.502 11.7424 18.6474C11.9079 18.8982 12.0528 19.1621 12.1755 19.4364C12.2127 19.523 12.2374 19.8603 12.1013 19.9562L12.0394 19.9686Z" fill="currentColor" />
        <path d="M11.1886 18.1091C11.2783 18.1091 11.3773 18.1338 11.3989 18.1771C11.6641 18.5881 11.9058 19.0136 12.1229 19.4519C12.1601 19.5292 12.1755 19.8448 12.0642 19.9221C12.0642 19.9221 12.0642 19.9221 12.0394 19.9221C11.7184 19.8306 11.4372 19.6344 11.2405 19.3648C11.0437 19.0952 10.9427 18.7675 10.9534 18.4339C10.9534 18.3504 10.9905 18.1648 11.0617 18.1245C11.1018 18.1075 11.145 18.099 11.1886 18.0998V18.1091ZM11.1886 18.0224C11.133 18.0206 11.0778 18.0323 11.0277 18.0565C10.8884 18.1276 10.8761 18.4277 10.8761 18.4308C10.8608 18.7857 10.9681 19.135 11.1799 19.4201C11.3918 19.7051 11.6952 19.9086 12.0394 19.9964C12.0644 19.9974 12.0892 19.9909 12.1106 19.9778C12.2622 19.8695 12.2374 19.5076 12.1941 19.4116C12.0706 19.1357 11.9258 18.8699 11.7609 18.6165C11.6681 18.4711 11.5722 18.3071 11.467 18.1276C11.4113 18.0286 11.2257 18.0224 11.1886 18.0224Z" fill="currentColor" />
        <path d="M11.1638 6.12299C11.1362 6.12791 11.1079 6.12791 11.0803 6.12299C11.01 6.10301 10.9469 6.06321 10.8986 6.00834C10.8503 5.95347 10.8189 5.88587 10.808 5.81359C10.8122 5.49676 10.8974 5.18627 11.0555 4.91169C11.2137 4.63711 11.4395 4.40758 11.7114 4.24495C11.788 4.21342 11.8699 4.19663 11.9528 4.19544C11.9936 4.19152 12.0346 4.20016 12.0703 4.22019C12.1539 4.27589 12.2374 4.45534 12.1972 4.52959C11.9528 5.0401 11.6867 5.55061 11.4082 6.04564C11.3754 6.07526 11.3366 6.09748 11.2944 6.11082C11.2522 6.12417 11.2077 6.12832 11.1638 6.12299Z" fill="currentColor" />
        <path d="M11.9527 4.20782C11.9861 4.20544 12.0194 4.21298 12.0486 4.22948C12.0879 4.26112 12.1189 4.30191 12.1389 4.34829C12.1588 4.39467 12.1671 4.44523 12.163 4.49556C11.9155 5.00607 11.6525 5.51348 11.3741 6.00852C11.3493 6.05493 11.2472 6.08277 11.1637 6.08277C11.1401 6.086 11.1161 6.086 11.0925 6.08277C11.0279 6.06429 10.9703 6.02711 10.9268 5.9759C10.8833 5.9247 10.8559 5.86176 10.8481 5.79503C10.8522 5.48573 10.9354 5.18263 11.0898 4.91456C11.2441 4.64649 11.4645 4.42237 11.7299 4.26351C11.8004 4.23368 11.8761 4.21792 11.9527 4.2171V4.20782ZM11.9527 4.13975C11.8618 4.14066 11.7722 4.16069 11.6897 4.19854C11.4096 4.36269 11.1769 4.59662 11.0143 4.8775C10.8516 5.15839 10.7645 5.47664 10.7615 5.80122C10.7712 5.88479 10.806 5.96347 10.8612 6.02696C10.9164 6.09044 10.9895 6.13578 11.0709 6.15703C11.1026 6.16201 11.135 6.16201 11.1668 6.15703C11.241 6.15703 11.3957 6.13537 11.4452 6.04255C11.7237 5.54751 11.9898 5.03701 12.2373 4.52341C12.2497 4.4558 12.243 4.38606 12.2178 4.32208C12.1927 4.2581 12.1501 4.20245 12.095 4.16141C12.0529 4.13675 12.0045 4.12493 11.9557 4.12738L11.9527 4.13975Z" fill="currentColor" />
    </g>
</svg>
    