<svg width="24" height="24" viewBox="0 0 24 24" fill="none" xmlns="http://www.w3.org/2000/svg">
    <g clip-path="url(#clip0)">
        <path d="M17.8891 8.71315C17.6606 7.39528 17.3131 5.40125 15.9295 3.39158C15.0718 2.15196 14.1327 1.34747 13.2656 1.11895C12.9642 1.03977 12.6538 0.999791 12.3421 1C11.6596 1.01586 10.9887 1.18038 10.3763 1.48207C9.47358 1.91825 8.71358 2.60225 8.18505 3.45418C7.96906 3.76722 8.04106 3.84548 9.92865 5.5609C10.7645 6.32157 11.6754 7.12607 11.7317 7.17928C11.7766 7.22116 11.8123 7.27181 11.8367 7.32808C11.8612 7.38436 11.8738 7.44505 11.8738 7.5064C11.8738 7.56775 11.8612 7.62845 11.8367 7.68472C11.8123 7.741 11.7766 7.79164 11.7317 7.83352C11.6973 7.88078 11.6533 7.92026 11.6026 7.94938C11.5519 7.97851 11.4956 7.99663 11.4375 8.00256C11.3754 8.00152 11.3161 7.9769 11.2716 7.93369C10.3512 7.1605 8.18505 4.97553 7.94715 4.73136L7.74681 4.52789C7.7174 4.49955 7.67808 4.48382 7.63725 4.48406H7.61533C7.59136 4.48747 7.56847 4.49629 7.5484 4.50984C7.52833 4.5234 7.51162 4.54135 7.49951 4.56232L7.36178 4.80336C7.00161 5.41157 6.7694 6.0869 6.67936 6.78799V6.88816C6.67634 6.91148 6.67872 6.93519 6.68632 6.95744C6.69392 6.97969 6.70653 6.9999 6.72319 7.01651L6.79205 7.0885L11.7004 12.119C11.8192 12.2421 11.8856 12.4065 11.8856 12.5775C11.8856 12.7486 11.8192 12.913 11.7004 13.0361C11.6582 13.0842 11.6007 13.1162 11.5376 13.1269C11.5176 13.1259 11.4981 13.1206 11.4803 13.1115C11.4624 13.1023 11.4468 13.0894 11.4343 13.0737L6.80458 8.66619L6.75762 8.62237C6.73524 8.59911 6.70524 8.58467 6.6731 8.58167L6.49154 8.5535H6.46963C6.44796 8.55372 6.42656 8.55826 6.40667 8.56686C6.38678 8.57546 6.36881 8.58795 6.35381 8.60359L6.27555 8.68498C6.0126 8.95731 5.91869 10.7385 6.07521 11.4616C6.11277 11.6338 6.12216 11.6744 10.6987 15.8941L10.7864 15.9724L11.8037 16.9115C11.8452 16.9786 11.8628 17.0578 11.8537 17.1362C11.8447 17.2146 11.8094 17.2876 11.7536 17.3435C11.7201 17.3792 11.6793 17.4072 11.6339 17.4256C11.5885 17.444 11.5396 17.4523 11.4907 17.4499C11.2299 17.4216 10.9847 17.3121 10.7895 17.1369C10.6017 16.9898 8.28523 14.8017 6.76701 13.3805L6.36946 13.0048C6.33971 12.977 6.30061 12.9614 6.2599 12.961C6.23715 12.9618 6.2148 12.9671 6.19416 12.9767C6.16549 12.9903 6.14154 13.0122 6.12537 13.0395C6.1092 13.0668 6.10154 13.0984 6.10338 13.1301L6.14408 13.6779C6.14408 13.7968 6.37259 16.6548 7.47447 18.8648C9.29945 22.5023 10.9679 22.9781 12.2169 22.9969H12.2545C13.0425 22.9734 13.8055 22.7151 14.4457 22.255C14.981 21.9106 15.7855 21.2564 16.615 19.5848C17.3186 18.087 17.7713 16.4838 17.9548 14.8392C18.2549 12.8064 18.2327 10.739 17.8891 8.71315ZM12.3453 16.4044C12.3108 16.3668 12.1606 16.2291 11.1996 15.3401C9.88796 14.1318 7.20213 11.6557 6.77953 11.2112C6.71753 10.6913 6.71753 10.1659 6.77953 9.64599L10.9178 13.6059C10.9996 13.689 11.097 13.755 11.2045 13.8002C11.312 13.8453 11.4273 13.8687 11.5439 13.8688C11.6737 13.8649 11.8014 13.8352 11.9197 13.7814C12.0379 13.7277 12.1443 13.651 12.2326 13.5558C12.4882 13.2943 12.6313 12.9432 12.6313 12.5775C12.6313 12.2119 12.4882 11.8608 12.2326 11.5993L7.4369 6.70034C7.49961 6.32255 7.61334 5.95503 7.77498 5.60785C8.53252 6.3654 10.0382 7.8617 10.7958 8.50029C10.9699 8.65133 11.1914 8.73662 11.4218 8.74132C11.5884 8.73574 11.7519 8.69425 11.901 8.61969C12.0501 8.54514 12.1814 8.43928 12.2858 8.30933C12.3945 8.19379 12.4785 8.05737 12.5329 7.90835C12.5872 7.75933 12.6107 7.60082 12.6019 7.44245C12.5931 7.28407 12.5522 7.12913 12.4818 6.98704C12.4113 6.84494 12.3127 6.71865 12.1919 6.61582C11.9571 6.41548 9.58745 4.29624 8.93634 3.63887C9.37507 2.99349 9.981 2.47952 10.6893 2.15196C11.2091 1.89525 11.7783 1.75428 12.3578 1.73876C12.605 1.73815 12.8512 1.76972 13.0903 1.83267C13.4941 1.9391 14.3236 2.33665 15.3253 3.80165C16.6213 5.67985 16.95 7.58623 17.1691 8.84149C17.5008 10.7896 17.523 12.7778 17.2349 14.7328C17.0685 16.2991 16.6455 17.8273 15.9827 19.2561C15.2314 20.7649 14.5334 21.3378 14.0732 21.6352C13.5479 22.021 12.9184 22.2392 12.267 22.2612H12.2232C11.5564 22.2612 9.99126 22.2393 8.13497 18.5048C7.56672 17.2634 7.18488 15.9449 7.00179 14.5919C8.13497 15.6656 10.1321 17.5438 10.3325 17.7223C10.6537 18.0072 11.0619 18.1749 11.4907 18.1981C11.7011 18.204 11.9086 18.1487 12.0882 18.0389C12.2677 17.9291 12.4115 17.7695 12.502 17.5795C12.5925 17.3895 12.6259 17.1773 12.5981 16.9687C12.5703 16.7601 12.4824 16.564 12.3453 16.4044Z" fill="currentColor" />
    </g>
</svg>
    