<svg width="24" height="24" viewBox="0 0 24 24" fill="none" xmlns="http://www.w3.org/2000/svg">
    <path fill-rule="evenodd" clip-rule="evenodd" d="M6.46789 12.903V22H18.4731L6.46808 22V12.903C5.58496 12.7122 4.77945 12.2526 4.15949 11.5777C3.41191 10.7639 3.00023 9.70684 3.00023 8.60113C3.00023 6.1955 4.94012 4.23444 7.33773 4.20011C4.94003 4.23434 3.00004 6.19544 3.00004 8.60114C3.00004 9.70684 3.41172 10.7639 4.1593 11.5777C4.77926 12.2526 5.58476 12.7122 6.46789 12.903ZM8.0358 4.24529C8.03586 4.2453 8.03592 4.2453 8.03597 4.24531C9.05443 2.85567 10.6471 2.02782 12.3826 2.00069C10.647 2.02776 9.05429 2.85561 8.0358 4.24529ZM16.9054 4.24529C16.9054 4.2453 16.9054 4.2453 16.9054 4.24531C17.0364 4.22635 17.1683 4.21325 17.3007 4.2061C17.1683 4.21325 17.0364 4.22633 16.9054 4.24529ZM18.6731 22.2V13.0614C19.5347 12.8432 20.3182 12.378 20.929 11.713C21.7105 10.8623 22.141 9.75691 22.141 8.60114C22.1409 6.06369 20.0769 3.99965 17.5395 3.99965C17.3574 3.99965 17.1756 4.01041 16.9951 4.03178C15.9192 2.62531 14.2638 1.8 12.4705 1.8C10.6772 1.8 9.02176 2.62531 7.94583 4.03178C7.7654 4.01041 7.58355 3.99965 7.40152 3.99965C4.86407 3.99965 2.80004 6.06369 2.80004 8.60114C2.80004 9.75691 3.2305 10.8623 4.01201 11.713C4.62281 12.378 5.40632 12.8432 6.26789 13.0615V22.2H18.6731ZM8.1657 5.46262L8.5759 5.56207L8.57592 5.56203L8.1659 5.46262C7.9166 5.40219 7.65949 5.37152 7.40172 5.37152C7.38603 5.37152 7.37037 5.37164 7.35474 5.37186C7.37031 5.37164 7.3859 5.37153 7.40152 5.37153C7.6593 5.37153 7.9164 5.40219 8.1657 5.46262ZM8.97542 12.9866C8.97297 12.9867 8.97051 12.9867 8.96805 12.9867H7.63992L8.96785 12.9867C8.97038 12.9867 8.9729 12.9867 8.97542 12.9866ZM17.3012 17.6641L17.3014 17.6641V12.9867H15.9733C15.6497 12.9867 15.3873 12.7243 15.3873 12.4007C15.3873 12.0803 15.6445 11.82 15.9637 11.8149C15.6444 11.8199 15.3871 12.0803 15.3871 12.4007C15.3871 12.7243 15.6495 12.9867 15.9731 12.9867H17.3012V17.6641ZM17.8553 11.8148H17.8555C18.6463 11.7382 19.3784 11.3732 19.9189 10.785C20.4673 10.188 20.7693 9.41242 20.7693 8.60113C20.7693 6.82031 19.3205 5.37152 17.5396 5.37152C17.5396 5.37152 17.5395 5.37153 17.5395 5.37153C19.3203 5.37153 20.7691 6.82032 20.7691 8.60114C20.7691 9.41242 20.4671 10.188 19.9187 10.785C19.3783 11.3732 18.6462 11.7382 17.8553 11.8148ZM16.3652 5.56203L16.141 5.20453C15.3586 3.95726 14.0253 3.20253 12.5606 3.17279C14.0252 3.2026 15.3584 3.95731 16.1408 5.20453L16.3651 5.56207L16.3652 5.56203ZM12.488 3.17191C12.4822 3.17189 12.4765 3.17188 12.4707 3.17188C12.4472 3.17188 12.4237 3.17206 12.4003 3.17243C12.4236 3.17206 12.447 3.17188 12.4705 3.17188C12.4763 3.17188 12.4822 3.17189 12.488 3.17191ZM12.4705 3.37188C13.9013 3.37188 15.2095 4.09623 15.9714 5.31081L16.2722 5.79039L16.8224 5.65699C17.0562 5.60032 17.2975 5.57153 17.5395 5.57153C19.2098 5.57153 20.5691 6.93077 20.5691 8.60114C20.5691 9.36236 20.2858 10.0896 19.7714 10.6497C19.2663 11.1994 18.5834 11.541 17.8455 11.6148H15.9731C15.539 11.6148 15.1871 11.9667 15.1871 12.4007C15.1871 12.8348 15.539 13.1867 15.9731 13.1867H17.1012V17.4641H7.83973V13.1867H8.96785C9.40191 13.1867 9.75379 12.8348 9.75379 12.4007C9.75379 11.9667 9.40191 11.6148 8.96785 11.6148H7.09549C6.35754 11.541 5.67463 11.1994 5.16959 10.6496C4.65516 10.0896 4.37191 9.36236 4.37191 8.60114C4.37191 6.93077 5.73116 5.57153 7.40152 5.57153C7.64349 5.57153 7.88478 5.60032 8.11859 5.65699L8.66878 5.79039L8.96958 5.31081C9.7314 4.09623 11.0396 3.37188 12.4705 3.37188ZM7.83973 19.0359V20.6281H17.1012V19.0359H7.83973ZM17.3012 18.8359V20.8281L17.3014 20.8281V18.8359H7.63992L17.3012 18.8359Z" fill="currentColor" />
</svg>
    