<svg width="24" height="24" viewBox="0 0 24 24" fill="none" xmlns="http://www.w3.org/2000/svg">
    <g clip-path="url(#clip0)">
        <path d="M9.16907 16.2726C9.28216 15.9508 9.38944 15.6289 9.49093 15.3042C9.49093 15.2694 9.47063 15.2143 9.44743 15.1766C9.36625 15.0374 9.27056 14.9069 9.20097 14.7649C9.14343 14.622 9.13326 14.4645 9.17197 14.3154C9.38141 13.168 9.43215 11.9972 9.32275 10.8359C9.28506 10.4241 9.20097 10.0182 9.15167 9.60646C9.13956 9.47453 9.15696 9.34156 9.2026 9.21718C9.24823 9.09281 9.32097 8.98014 9.41554 8.88736C9.456 8.85217 9.48303 8.80405 9.49201 8.75119C9.501 8.69832 9.4914 8.64398 9.46483 8.5974C9.24446 8.00298 9.04149 7.39696 8.81822 6.80254C8.70514 6.51258 8.56595 6.22262 8.42677 5.93266C8.34744 5.77189 8.32398 5.58925 8.36008 5.41364C8.37646 5.36565 8.38158 5.31454 8.37504 5.26426C8.3685 5.21398 8.35049 5.16588 8.32239 5.12367C7.93385 4.58929 7.50748 4.08346 7.04656 3.61008C6.7972 3.34042 6.54783 3.06786 6.28977 2.80399C6.10898 2.62223 6.00488 2.378 5.99894 2.1217C5.99301 1.86541 6.0857 1.61662 6.25787 1.42668C6.60587 1.04232 6.9757 0.678302 7.36552 0.336433C7.6096 0.131164 7.91655 0.0155473 8.2354 0.00877791C8.8243 -0.0170205 9.41058 0.101431 9.94327 0.353831C10.845 0.727879 11.7149 1.17442 12.5587 1.63545C12.7891 1.75338 13.0127 1.88407 13.2285 2.0269C13.2773 2.0619 13.3347 2.08284 13.3945 2.08744C13.4543 2.09204 13.5143 2.08013 13.5678 2.053C13.772 1.96997 13.9948 1.94365 14.2128 1.97683C14.4307 2.01 14.6356 2.10144 14.8059 2.24147C14.9793 2.40267 15.1141 2.6009 15.2002 2.82139C15.4264 3.29983 15.6555 3.78116 15.8701 4.27119C16.0846 4.76123 16.3079 5.30925 16.5196 5.83408C16.6355 6.12404 16.737 6.414 16.8385 6.70396C16.8454 6.73693 16.8637 6.7664 16.8902 6.78711C16.9168 6.80783 16.9498 6.81843 16.9835 6.81704C17.2204 6.81838 17.4531 6.88004 17.6596 6.99621C17.866 7.11239 18.0395 7.27925 18.1636 7.48105C18.2639 7.65278 18.3317 7.8415 18.3637 8.03777C18.4507 8.49011 18.5319 8.94245 18.5754 9.40059C18.6392 10.0588 18.6972 10.7199 18.7088 11.3781C18.7088 12.1929 18.7088 13.0106 18.6479 13.8196C18.5899 14.5793 18.4768 15.3361 18.3579 16.0871C18.3191 16.3115 18.2201 16.5212 18.0715 16.6938C17.9229 16.8664 17.7303 16.9954 17.5141 17.0671C17.3347 17.1188 17.1527 17.1614 16.969 17.1947C16.9411 17.201 16.9149 17.213 16.8919 17.23C16.869 17.247 16.8498 17.2685 16.8356 17.2933C16.5352 18.1694 16.1907 19.0298 15.8034 19.871C15.5656 20.4075 15.3046 20.9381 15.0408 21.4658C14.9156 21.6809 14.7245 21.8501 14.4958 21.9482C14.2671 22.0464 14.0129 22.0684 13.7707 22.011C13.7157 22.0084 13.6616 21.9956 13.6113 21.9733C13.4402 21.8573 13.3039 21.9298 13.1473 22.0168C12.4456 22.4024 11.741 22.7851 11.0248 23.1476C10.6015 23.3622 10.1549 23.539 9.7229 23.7275C9.20192 23.9597 8.62761 24.0459 8.06142 23.9769C7.73957 23.9392 6.12449 22.1849 6.16509 22.1443C6.14304 22.1049 6.11679 22.0679 6.0868 22.0342C6.04801 21.9979 6.01993 21.9517 6.00561 21.9005C5.99129 21.8494 5.99129 21.7953 6.00561 21.7442C6.08069 21.4438 6.25297 21.1767 6.49564 20.9845C7.04076 20.3843 7.57719 19.7783 8.11362 19.1722C8.20513 19.0618 8.28939 18.9456 8.36588 18.8243C8.38834 18.7933 8.39866 18.7551 8.39488 18.717C8.35893 18.5729 8.35196 18.4231 8.37436 18.2762C8.39676 18.1294 8.44808 17.9885 8.52536 17.8616C8.64134 17.6268 9.10528 16.493 9.16907 16.2726ZM17.9926 12.1291C17.9636 11.5492 17.9549 11.0737 17.9172 10.6068C17.8737 10.0269 17.8099 9.44698 17.7432 8.89026C17.7113 8.62059 17.6533 8.35383 17.604 8.08417C17.5532 7.9121 17.4391 7.76564 17.2848 7.67421C17.1304 7.58277 16.9471 7.55313 16.7718 7.59124C16.2364 7.71109 15.7019 7.8348 15.1683 7.96239C14.687 8.07257 14.2086 8.19145 13.7185 8.30454L11.8889 8.72788C11.483 8.82067 11.0741 8.91345 10.6711 9.01784C10.436 9.06414 10.2171 9.17109 10.0361 9.3281C9.99181 9.36111 9.95738 9.40553 9.93644 9.45661C9.9155 9.50768 9.90884 9.56349 9.91717 9.61806C9.99546 10.2299 10.0882 10.8446 10.1201 11.4593C10.1696 12.4573 10.1025 13.4577 9.92007 14.4401C9.91402 14.4718 9.91532 14.5045 9.92386 14.5357C9.9324 14.5669 9.94797 14.5957 9.96936 14.6199C10.0978 14.7421 10.2471 14.8403 10.4101 14.9098C10.761 15.0287 11.1234 15.107 11.483 15.1998L13.8026 15.742C14.3014 15.858 14.8059 15.9682 15.3046 16.0871C15.8034 16.206 16.2412 16.3074 16.708 16.4205C16.8092 16.4513 16.9159 16.4597 17.0207 16.4453C17.1255 16.4308 17.2258 16.3937 17.3149 16.3366C17.4039 16.2796 17.4795 16.2038 17.5365 16.1147C17.5934 16.0255 17.6303 15.9251 17.6446 15.8203C17.7171 15.281 17.8157 14.7417 17.865 14.1994C17.923 13.4716 17.952 12.7438 17.9926 12.1291ZM9.6852 5.01929C9.50527 5.12753 9.33544 5.25175 9.17777 5.39044C9.1352 5.42423 9.10683 5.47274 9.09824 5.52641C9.08966 5.58007 9.10148 5.63501 9.13138 5.6804C9.32275 6.11534 9.51412 6.55028 9.6852 6.99392C9.85628 7.43756 9.97516 7.8406 10.1375 8.26394C10.1578 8.31904 10.1665 8.37703 10.2593 8.34803C10.4826 8.28134 10.7088 8.22335 10.9378 8.17116L12.753 7.75071L13.9128 7.47815L15.7744 7.04901L16.1078 6.96492C16.1078 6.93303 16.1078 6.90983 16.1078 6.89243C15.8179 6.17333 15.554 5.44263 15.2524 4.74093C15.0031 4.16101 14.7131 3.58109 14.4463 3.00117C14.4258 2.94118 14.3924 2.8864 14.3485 2.84067C14.3046 2.79494 14.2512 2.75936 14.1921 2.73643C14.133 2.71351 14.0696 2.70378 14.0063 2.70794C13.943 2.71209 13.8814 2.73003 13.8258 2.7605C13.5359 2.89678 13.272 3.05046 12.9965 3.20124C12.7211 3.35202 10.4101 4.61914 9.6852 5.01929ZM9.13428 18.3575C9.1078 18.3966 9.09699 18.4442 9.10397 18.4909C9.11095 18.5377 9.13522 18.58 9.17197 18.6097C9.29526 18.7305 9.43139 18.8375 9.57792 18.9287C10.297 19.3346 11.0277 19.729 11.7497 20.1262C12.4108 20.4916 13.069 20.8569 13.733 21.2165C13.7891 21.2579 13.8539 21.2861 13.9225 21.2989C13.991 21.3117 14.0616 21.3088 14.1289 21.2904C14.1962 21.272 14.2584 21.2385 14.3109 21.1926C14.3633 21.1466 14.4047 21.0893 14.4318 21.0251C14.6725 20.5148 14.9277 20.0102 15.148 19.4912C15.4728 18.7257 15.7715 17.9515 16.0846 17.1715C16.1136 17.099 16.102 17.0584 16.0237 17.041L15.7628 16.9859C15.2872 16.8729 14.8117 16.7569 14.3362 16.6467L12.3586 16.1828L11.0306 15.8725L10.1781 15.6724L10.1114 15.8638C9.96646 16.2755 9.82148 16.6931 9.6678 17.099C9.56342 17.3455 9.19807 18.2328 9.13428 18.3575ZM8.88201 19.4129C8.78053 19.5463 8.67904 19.7029 8.55726 19.8334C8.00053 20.4539 7.43801 21.0715 6.87839 21.6891C6.84237 21.7161 6.81315 21.7511 6.79301 21.7914C6.77288 21.8317 6.7624 21.8761 6.7624 21.9211C6.7624 21.9661 6.77288 22.0105 6.79301 22.0507C6.81315 22.091 6.84237 22.126 6.87839 22.153C7.08426 22.3647 7.29593 22.5735 7.5076 22.7764C7.63616 22.9168 7.7835 23.0388 7.94544 23.1389C8.28838 23.2923 8.67783 23.3047 9.02989 23.1737C9.42852 23.0546 9.81649 22.9023 10.1897 22.7185C10.845 22.4169 11.4743 22.0776 12.1238 21.7529C12.2861 21.6688 12.4427 21.5702 12.6196 21.4629C12.5685 21.4253 12.513 21.3942 12.4543 21.3701C12.2774 21.3382 9.89687 19.958 8.88201 19.3984V19.4129ZM12.6312 2.53723C12.5297 2.47924 12.4543 2.43285 12.376 2.39515C11.5902 1.99791 10.8073 1.58906 10.01 1.20921C9.54707 0.944136 9.02891 0.790275 8.49637 0.759775C8.3721 0.743687 8.24589 0.752312 8.12497 0.785154C8.00405 0.817996 7.89081 0.874408 7.79176 0.951148C7.4786 1.24111 7.16255 1.55427 6.87259 1.87612C6.70441 2.0646 6.72761 2.16608 6.87259 2.33136C7.36842 2.85619 7.85265 3.38681 8.32239 3.92324C8.51956 4.14361 8.69644 4.38138 8.87331 4.59885L12.6312 2.53723Z" fill="currentColor" />
    </g>
</svg>
    