<svg width="24" height="24" viewBox="0 0 24 24" fill="none" xmlns="http://www.w3.org/2000/svg">
    <path d="M20.4853 3.51469C18.2188 1.24823 15.2053 0 12 0C8.79469 0 5.78123 1.24823 3.51469 3.51469C1.24823 5.78123 0 8.79469 0 12C0 15.2053 1.24823 18.2188 3.51469 20.4853C5.78123 22.7518 8.79469 24 12 24C15.2053 24 18.2188 22.7518 20.4853 20.4853C22.7518 18.2188 24 15.2053 24 12C24 8.79469 22.7518 5.78123 20.4853 3.51469ZM19.4909 4.50909C21.4918 6.51 22.5938 9.1703 22.5938 12C22.5938 14.594 21.6671 17.0452 19.9715 18.9771L16.5703 15.576V12.1953C16.5703 11.1458 16.2003 10.1238 15.5284 9.31753C15.0667 8.76356 14.8125 8.06128 14.8125 7.34006V3.53906H9.1875V7.34011C9.1875 7.59708 9.15464 7.85152 9.0922 8.09784L5.02294 4.02858C6.95475 2.33288 9.40598 1.40625 12 1.40625C14.8297 1.40625 17.49 2.50819 19.4909 4.50909ZM9.55186 10.2178C10.1341 9.51905 10.4892 8.65814 10.5737 7.75781H13.4263C13.5107 8.65814 13.8658 9.51905 14.4481 10.2178C14.9098 10.7718 15.164 11.4741 15.164 12.1953V12.6649C13.7925 12.605 13.0174 12.3705 12.2039 12.1239C11.3401 11.8622 10.4504 11.5929 8.91 11.5245C9.01645 11.0471 9.23541 10.5976 9.55186 10.2178ZM13.4062 6.35156H10.5938V4.94531H13.4062V6.35156ZM8.83594 12.9289C10.2075 12.9887 10.9826 13.2233 11.7961 13.4698C12.6737 13.7357 13.5777 14.0095 15.1641 14.0725V18.3047H8.83594V12.9289ZM4.50909 19.4909C2.50819 17.49 1.40625 14.8297 1.40625 12C1.40625 9.40598 2.33288 6.95475 4.02853 5.02289L8.40577 9.40012C7.77614 10.1931 7.42969 11.181 7.42969 12.1953V19.7109H16.5703V17.5647L18.9771 19.9715C17.0453 21.6671 14.594 22.5938 12 22.5938C9.1703 22.5938 6.51 21.4918 4.50909 19.4909Z" fill="currentColor" />
</svg>
    