<svg width="24" height="24" viewBox="0 0 24 24" fill="none" xmlns="http://www.w3.org/2000/svg">
    <g clip-path="url(#clip0)">
        <path d="M19.4619 7.85907C19.596 7.72746 19.6839 7.55586 19.7121 7.37006C19.7404 7.18426 19.7076 6.9943 19.6187 6.82874C19.5537 6.72064 19.4756 6.62096 19.3863 6.53196C19.3555 6.50116 19.3275 6.47036 19.2995 6.43676C19.27 6.40654 19.236 6.38105 19.1987 6.36117L19.1567 6.31917L19.1399 6.29957C19.2 6.26466 19.2517 6.21685 19.2911 6.15958C19.3661 6.1442 19.4345 6.10607 19.4871 6.05039L19.5207 6.02239C19.6083 5.95986 19.6924 5.89256 19.7727 5.82081C19.8314 5.77321 19.8902 5.72281 19.9518 5.67802C20.0513 5.59107 20.1449 5.49754 20.2318 5.39803L20.3382 5.29164C20.5874 5.04806 20.8366 4.77927 21.125 4.4517C21.4731 4.05113 21.7565 3.59863 21.9649 3.11059C22.077 2.88088 22.1299 2.6268 22.1189 2.37144C22.1218 2.23719 22.084 2.10521 22.0105 1.9928C21.9371 1.88039 21.8314 1.79279 21.7073 1.74148C21.433 1.64871 21.1342 1.65966 20.8674 1.77228C20.5068 1.90282 20.1665 2.08381 19.8566 2.30984C18.9889 2.92461 18.2316 3.68194 17.6168 4.54969L17.5216 4.68408L17.4992 4.65888C17.3984 4.55249 17.3032 4.4489 17.2024 4.3509C17.122 4.26972 17.0263 4.20528 16.9208 4.1613C16.8153 4.11733 16.7021 4.09468 16.5879 4.09468C16.4736 4.09468 16.3604 4.11733 16.2549 4.1613C16.1495 4.20528 16.0537 4.26972 15.9733 4.3509C15.4133 4.91087 14.8534 5.47083 14.2934 6.03079L7.29388 13.0303L5.40681 14.9118C5.31366 15.0008 5.23939 15.1077 5.1884 15.226C5.13742 15.3443 5.11076 15.4717 5.11003 15.6006C5.11338 15.7271 5.14241 15.8517 5.19535 15.9667C5.24829 16.0818 5.32404 16.1848 5.41801 16.2697C5.502 16.3537 5.58879 16.4349 5.67279 16.5217C5.12382 16.894 4.61854 17.327 4.16649 17.8124C3.6348 18.3407 3.19481 18.9538 2.86458 19.6267C2.72239 19.8939 2.65744 20.1954 2.67699 20.4974C2.68788 20.6483 2.74893 20.7911 2.8504 20.9032C2.95188 21.0154 3.08795 21.0903 3.23695 21.1162C3.3036 21.1271 3.371 21.1327 3.43854 21.133C3.61869 21.1389 3.79855 21.1143 3.9705 21.0602C4.31443 20.932 4.63937 20.7578 4.93644 20.5422C5.73763 19.9779 6.44688 19.2932 7.0391 18.5124C7.12029 18.406 7.19589 18.2996 7.27428 18.1848L7.29108 18.1596L7.31068 18.182C7.40867 18.2856 7.50387 18.3836 7.59066 18.4816C7.67596 18.5656 7.77734 18.6316 7.88873 18.6756C8.00012 18.7196 8.11925 18.7406 8.23896 18.7375C8.35868 18.7343 8.47654 18.7071 8.58548 18.6573C8.69442 18.6076 8.7922 18.5364 8.87298 18.448L17.7232 9.59775L19.4619 7.85907ZM6.74232 17.6192C6.31071 18.2621 5.79677 18.8457 5.21362 19.3551C4.83552 19.7014 4.41386 19.997 3.9593 20.2342C3.8294 20.2921 3.69562 20.3407 3.55893 20.3798L3.49173 20.3938C3.47655 20.381 3.46659 20.3631 3.46374 20.3434C3.46223 20.3304 3.46223 20.3173 3.46374 20.3042V20.2454L3.48053 20.1922C3.49939 20.1068 3.5237 20.0226 3.55333 19.9403C3.86031 19.333 4.2641 18.7798 4.74885 18.3024C5.15623 17.8744 5.60763 17.4905 6.09556 17.1572L6.18515 17.0985L6.26915 17.1796C6.42874 17.3252 6.57713 17.468 6.74232 17.6192ZM18.0844 5.21325C18.4712 4.62624 18.9313 4.0909 19.4535 3.62015C19.8455 3.24679 20.2829 2.92415 20.7554 2.65982C20.939 2.55299 21.1399 2.47908 21.3489 2.44143H21.3797C21.3797 2.44143 21.3797 2.46663 21.3797 2.49183C21.358 2.64984 21.3077 2.80258 21.2314 2.9426C20.8442 3.66838 20.3325 4.32041 19.7195 4.86887C19.3756 5.19683 19.0005 5.49035 18.5995 5.74521L18.0844 5.21325ZM18.6443 6.79794L18.6667 6.82594C18.7451 6.92113 18.8263 7.01913 18.9187 7.10592C18.933 7.12127 18.9441 7.13934 18.9514 7.15905C18.9586 7.17877 18.9618 7.19974 18.9607 7.22071C18.9613 7.2672 18.9443 7.31219 18.9131 7.3467C18.3056 7.94586 17.7036 8.55062 17.1016 9.15258L8.4698 17.7872L8.34941 17.9048C8.33597 17.9239 8.31815 17.9394 8.29744 17.9502C8.27673 17.9609 8.25375 17.9665 8.23042 17.9665C8.20709 17.9665 8.18411 17.9609 8.1634 17.9502C8.14269 17.9394 8.12487 17.9239 8.11143 17.9048L7.27148 17.0649L5.94717 15.7405C5.90097 15.7034 5.87006 15.6506 5.86038 15.5922C5.86963 15.5358 5.89958 15.4848 5.94437 15.4494L16.4745 4.92486C16.4897 4.90647 16.5084 4.89129 16.5296 4.88023C16.5507 4.86918 16.5739 4.86246 16.5977 4.86047C16.6469 4.86538 16.6922 4.88953 16.7237 4.92767L18.4455 6.64675L18.6247 6.81474L18.6443 6.79794Z" fill="currentColor" />
        <path d="M23.894 13.2207C23.8584 12.7917 23.6878 12.3849 23.4068 12.0588C23.2443 11.8684 23.0714 11.687 22.8889 11.5156L22.7153 11.342C21.8343 10.4536 20.9504 9.56697 20.0638 8.68223L19.8819 8.50024C19.8423 8.45831 19.7992 8.4199 19.7531 8.38545C19.6752 8.33163 19.5797 8.30949 19.4861 8.32353C19.3925 8.33758 19.3078 8.38674 19.2491 8.46104C19.1916 8.53892 19.1652 8.63541 19.1751 8.7317C19.1849 8.82799 19.2303 8.91716 19.3023 8.98181L21.6121 11.2889C21.9089 11.5856 22.2085 11.8824 22.5025 12.182C22.6649 12.3369 22.8103 12.5087 22.9364 12.6944C23.0436 12.8662 23.1146 13.0582 23.1449 13.2585C23.1753 13.4588 23.1643 13.6632 23.1128 13.8591C23.0708 14.064 22.9805 14.2559 22.8497 14.419C22.7181 14.5702 22.5697 14.7186 22.4353 14.8642L22.2813 15.021C22.0381 15.3007 21.7076 15.4901 21.3434 15.5586C21.1124 15.6081 20.873 15.6016 20.6451 15.5398C20.4171 15.4779 20.2073 15.3624 20.033 15.203C19.6664 14.8361 19.2001 14.5849 18.6919 14.4806C18.3849 14.4221 18.069 14.4292 17.765 14.5016C17.4609 14.574 17.1757 14.71 16.928 14.9006C16.7221 15.0646 16.5276 15.2423 16.3457 15.4326L16.1637 15.6118C15.7502 16.0001 15.4949 16.5276 15.4469 17.0929C15.411 17.394 15.4391 17.6992 15.5293 17.9887C15.6195 18.2782 15.7699 18.5454 15.9705 18.7728C16.3485 19.2039 16.7545 19.6127 17.0904 19.9263C17.2842 20.0956 17.4357 20.3077 17.5329 20.5459C17.6301 20.7841 17.6703 21.0417 17.6504 21.2982C17.6406 21.5797 17.5427 21.8509 17.3704 22.0737C17.2232 22.2504 17.0661 22.4186 16.9 22.5777L16.7069 22.7765C16.5004 22.9964 16.2335 23.1503 15.9397 23.2189C15.7359 23.2725 15.5231 23.2825 15.3151 23.2482C15.1072 23.214 14.9088 23.1362 14.733 23.0201C14.5564 22.889 14.3915 22.7429 14.2402 22.5833L14.1926 22.5189L11.6588 19.9991L9.97891 18.3192C9.93378 18.2639 9.87402 18.2224 9.80645 18.1995C9.73887 18.1765 9.66621 18.173 9.59674 18.1893C9.52727 18.2057 9.46379 18.2412 9.41354 18.2919C9.36329 18.3426 9.3283 18.4064 9.31256 18.476C9.30344 18.5388 9.30963 18.603 9.33059 18.6629C9.35155 18.7229 9.38666 18.7769 9.43295 18.8204L9.99291 19.3803L11.292 20.6766C12.1301 21.5147 12.97 22.3547 13.8119 23.1965C14.1963 23.6205 14.7176 23.896 15.2846 23.9748C15.3915 23.9868 15.4989 23.9934 15.6065 23.9944C16.1168 23.9981 16.6121 23.8227 17.0064 23.4988C17.1749 23.3583 17.3356 23.2087 17.488 23.0509L17.67 22.8689C17.946 22.6157 18.1561 22.299 18.282 21.9463C18.4079 21.5935 18.4458 21.2153 18.3924 20.8446C18.3526 20.4052 18.173 19.9901 17.88 19.6603C17.5468 19.2991 17.1912 18.9491 16.8497 18.6132L16.7713 18.5404C16.4782 18.2849 16.2807 17.9374 16.2113 17.5548C16.1715 17.344 16.1777 17.127 16.2294 16.9188C16.2811 16.7105 16.3771 16.5159 16.5109 16.3481C16.6602 16.1671 16.8211 15.996 16.9924 15.8358L17.1716 15.6566C17.4164 15.401 17.7437 15.2403 18.0956 15.203C18.3347 15.1699 18.5781 15.1932 18.8066 15.271C19.0351 15.3488 19.2422 15.4789 19.4115 15.651C19.627 15.8686 19.8833 16.0415 20.1659 16.1597C20.4484 16.2779 20.7515 16.3391 21.0578 16.3397H21.1922C21.2874 16.3397 21.3826 16.3229 21.4721 16.3061C21.8635 16.2484 22.2299 16.0793 22.5277 15.819C22.8077 15.5642 23.0876 15.2898 23.306 15.0574C23.4975 14.8486 23.6476 14.6054 23.7484 14.3407C23.8854 13.9843 23.9354 13.6003 23.894 13.2207Z" fill="currentColor" />
        <path d="M4.5977 13.9882C4.73769 14.1281 4.87769 14.2681 5.01768 14.4053C5.05445 14.4418 5.09819 14.4705 5.14629 14.4898C5.19439 14.509 5.24586 14.5184 5.29766 14.5173C5.32739 14.5213 5.35752 14.5213 5.38725 14.5173C5.44855 14.502 5.50479 14.4709 5.55045 14.4272C5.59611 14.3835 5.6296 14.3287 5.64763 14.2681C5.66814 14.1881 5.66474 14.1038 5.63787 14.0257C5.611 13.9476 5.56184 13.8791 5.49644 13.8286L4.7181 13.0502C4.20573 12.5379 3.69616 12.0255 3.1782 11.5159C2.57993 10.9411 2.14761 10.2157 1.92668 9.41606C1.81268 8.9983 1.75709 8.56676 1.76149 8.13375C1.77166 6.98745 2.2147 5.88735 3.00181 5.05395C3.24259 4.80384 3.48618 4.55745 3.73256 4.3148L4.11334 3.90883L4.7153 3.29847C5.08767 2.92329 5.45725 2.54812 5.83522 2.17854C5.97873 2.03297 6.13115 1.89645 6.29159 1.76977C6.62128 1.50606 6.98474 1.28761 7.37232 1.12021C7.81626 0.925121 8.28915 0.804059 8.77223 0.761838C9.50212 0.697615 10.2368 0.80997 10.9141 1.08942C11.4237 1.2981 11.8899 1.60005 12.2888 1.97976C12.6248 2.30734 12.9552 2.63771 13.2855 2.97089L14.8646 4.54159C14.9107 4.59327 14.9702 4.63119 15.0366 4.65113C15.1029 4.67108 15.1734 4.67228 15.2404 4.65459C15.3074 4.63691 15.3681 4.60104 15.4159 4.55095C15.4638 4.50086 15.4968 4.4385 15.5114 4.3708C15.5211 4.30113 15.5134 4.23015 15.489 4.16419C15.4645 4.09823 15.4241 4.03935 15.3714 3.99282L14.6434 3.26487L13.2799 1.90416L13.1819 1.80897C12.9376 1.55693 12.6786 1.31947 12.4064 1.09782C11.8071 0.62517 11.105 0.300043 10.3569 0.148679C10.0359 0.0810664 9.71017 0.0380116 9.38259 0.019888C8.71613 -0.0110887 8.05012 0.0897648 7.42272 0.316668C7.11741 0.426972 6.82153 0.561803 6.53798 0.719841C6.50167 0.742517 6.46705 0.767781 6.43438 0.795436L6.37559 0.840233L6.31119 0.871031C6.26332 0.890336 6.21815 0.915745 6.1768 0.946626C5.96401 1.11181 5.75683 1.2854 5.54964 1.45619L5.46005 1.53179C5.33713 1.63016 5.21938 1.73483 5.10727 1.84537C5.00088 1.95456 4.90288 2.06655 4.80209 2.18134C4.7013 2.29614 4.6453 2.35773 4.56411 2.44453C4.48291 2.53132 4.40452 2.60412 4.32332 2.68251L4.14973 2.8477L3.56737 3.42166C3.25099 3.73804 2.93181 4.05722 2.60984 4.3736C2.15568 4.81847 1.78324 5.3397 1.50951 5.9135C1.25862 6.44706 1.09778 7.01848 1.03354 7.60458C0.975173 8.15576 0.999711 8.71257 1.10634 9.25647C1.21886 9.80671 1.41728 10.3358 1.6943 10.8244C1.92347 11.2273 2.20601 11.5974 2.53424 11.9247L3.80256 13.193L4.5977 13.9882Z" fill="currentColor" />
    </g>
</svg>
    