<svg width="29" height="30" viewBox="0 0 29 30" fill="none" xmlns="http://www.w3.org/2000/svg">
    <path d="M14.5001 0.278351C6.49199 0.278351 0 6.77034 0 14.7784C0 21.9608 5.22757 27.9089 12.0818 29.0608V17.8035H8.58392V13.7525H12.0818V10.7655C12.0818 7.29964 14.1986 5.41095 17.2908 5.41095C18.7718 5.41095 20.0445 5.52131 20.414 5.56992V9.19265L18.2693 9.19368C16.588 9.19368 16.2639 9.99247 16.2639 11.165V13.7505H20.2756L19.7524 17.8015H16.2639V29.1576C23.4381 28.2845 29 22.1848 29 14.7743C29 6.77034 22.508 0.278351 14.5001 0.278351Z" fill="currentColor" />
</svg>
    