<svg width="24" height="24" viewBox="0 0 24 24" fill="none" xmlns="http://www.w3.org/2000/svg">
    <path fill-rule="evenodd" clip-rule="evenodd" d="M10.3319 20.4468L11.8511 21.966L13.3702 20.4468C19.0128 15.4553 22.7021 12.0915 22.7021 7.96809C22.7021 4.60426 20.0979 2 16.734 2C15.5561 2 14.3781 2.35399 13.3697 2.9772C12.7989 3.32992 12.2825 3.76889 11.8511 4.27872C11.4197 3.76889 10.9032 3.32992 10.3325 2.9772C9.32403 2.35399 8.14606 2 6.96809 2C3.60426 2 1 4.60426 1 7.96809C1 12.0915 4.68936 15.4553 10.3319 20.4468ZM11.8511 19.1375L11.9993 18.9893L12.0451 18.9488C14.8999 16.4234 17.1006 14.4448 18.607 12.612C20.0906 10.807 20.7021 9.37536 20.7021 7.96809C20.7021 5.70882 18.9933 4 16.734 4C15.4872 4 14.1976 4.60177 13.3778 5.57061L11.8511 7.37498L10.3243 5.57061C9.50451 4.60177 8.21497 4 6.96809 4C4.70882 4 3 5.70882 3 7.96809C3 9.37536 3.6115 10.807 5.09508 12.612C6.60148 14.4448 8.80219 16.4234 11.6571 18.9488L11.7029 18.9893L11.8511 19.1375Z" fill="currentColor" />
</svg>
    