<svg width="24" height="24" viewBox="0 0 24 24" fill="none" xmlns="http://www.w3.org/2000/svg">
    <g clip-path="url(#clip0_720:24535)">
        <path d="M0 4V20H24V4H0Z" fill="#012169" />
        <path d="M0 4L24 20L0 4ZM24 4L0 20L24 4Z" fill="black" />
        <path d="M23.4648 21.4319L12.0008 13.7892L0.536844 21.4319L-0.535156 18.5679L9.31684 11.9999L-0.535156 5.43191L0.536844 2.56791L12.0008 10.2106L23.4648 2.56791L24.5368 5.43191L14.6848 11.9999L24.5368 18.5679L23.4648 21.4319Z" fill="white" />
        <path d="M0 4L24 20L0 4ZM24 4L0 20L24 4Z" fill="black" />
        <path d="M23.6426 20.9544L12.0006 13.1918L0.358578 20.9544L-0.357422 19.0451L10.2126 11.9998L-0.357422 4.95444L0.358578 3.04511L12.0006 10.8078L23.6426 3.04511L24.3586 4.95444L13.7886 11.9998L24.3586 19.0451L23.6426 20.9544Z" fill="#C8102E" />
        <path d="M12 4V20V4ZM0 12H24H0Z" fill="black" />
        <path d="M14 20H10V14.6667H0V9.33333H10V4H14V9.33333H24V14.6667H14V20Z" fill="white" />
        <path d="M12 4V20V4ZM0 12H24H0Z" fill="black" />
        <path d="M13.2 20H10.8V13.6H0V10.4H10.8V4H13.2V10.4H24V13.6H13.2V20Z" fill="#C8102E" />
    </g>
    <rect x="0.25" y="4.25" width="23.5" height="15.5" rx="1.75" stroke="#39474F" stroke-width="0.5" />
</svg>
    