<svg width="24" height="24" viewBox="0 0 24 24" fill="none" xmlns="http://www.w3.org/2000/svg">
    <path d="M20.5013 3.49919C20.4072 3.40504 20.3113 3.31333 20.2146 3.22275C20.2117 3.21998 20.2093 3.21697 20.2064 3.21429C20.2032 3.21134 20.1997 3.20889 20.1965 3.20598C15.6806 -1.18036 7.86558 -1.04967 3.49975 3.49933C-1.2803 8.10291 -1.14304 16.3399 3.78972 20.7802C3.7948 20.7853 3.79926 20.7906 3.80452 20.7955C3.81048 20.801 3.81687 20.8058 3.82292 20.8111C8.34095 25.1812 16.1419 25.0426 20.5013 20.5006C25.1649 16.0261 25.1651 7.97373 20.5013 3.49919ZM1.38744 11.9999C1.37293 3.08351 11.8368 -1.86033 18.7151 3.77954L15.5468 7.17336V4.70224C15.5096 3.76766 14.1749 3.76836 14.138 4.70224V6.3265L12.7046 7.34818V3.35639C12.6673 2.42181 11.3327 2.42252 11.2958 3.35639V7.34818L9.86232 6.3265V4.70224C9.82508 3.76766 8.49042 3.76836 8.45355 4.70224V14.7811L4.26687 19.2675C2.40777 17.2923 1.38744 14.7246 1.38744 11.9999ZM12.7046 13.5287V12.1684L14.138 11.1467V12.507L12.7046 13.5287ZM14.138 14.237V15.3531C14.138 15.5516 14.005 15.7621 13.7722 15.9328L12.7046 16.6012V15.2587L14.138 14.237ZM12.7046 10.4384V9.07811L14.138 8.05642V9.41673L12.7046 10.4384ZM9.86228 12.507V11.1467L11.2957 12.1684V13.5287L9.86228 12.507ZM11.2958 15.2587V16.6012L10.2281 15.9328C9.99536 15.7621 9.86228 15.5516 9.86228 15.3531V14.237L11.2958 15.2587ZM9.86228 9.41677V8.05647L11.2957 9.07815V10.4385L9.86228 9.41677ZM19.5052 19.5045C15.8301 23.3291 9.32718 23.647 5.29669 20.2289L8.808 16.4662C8.9662 16.6992 9.17362 16.9115 9.42579 17.0912C9.43725 17.0994 9.44894 17.1071 9.46087 17.1147L11.2957 18.2633V20.6427C11.333 21.5773 12.6677 21.5766 12.7045 20.6427V18.2633L14.5394 17.1147C14.5513 17.1072 14.563 17.0994 14.5745 17.0912C15.1924 16.6508 15.5468 16.0173 15.5468 15.3531V9.23781L19.7435 4.74229C23.6358 8.7262 23.5288 15.6428 19.5052 19.5045Z" fill="currentColor" />
</svg>
    