<svg width="72" height="72" viewBox="0 0 72 72" fill="none" xmlns="http://www.w3.org/2000/svg">
    <path d="M5.85152 38.1836L5.47266 34.0542C6.83911 33.9291 8.22892 33.7618 9.60353 33.5566L10.2164 37.6579C8.76439 37.8744 7.29579 38.0513 5.85152 38.1836Z" fill="currentColor" />
    <path d="M65.192 12.8383L64.3519 5.49406C64.2233 4.37074 63.1726 3.53588 62.0465 3.67051L54.6801 4.53881L55.1665 8.65684L57.4748 8.38482C48.652 18.364 31.9361 29.161 13.3672 32.8974L14.1868 36.9625C31.576 33.4632 49.0349 24.3195 60.791 10.8902L61.0676 13.3091L65.192 12.8383Z" fill="currentColor" />
    <path d="M15.6534 68.3428H5.73178C4.58551 68.3428 3.65625 67.4145 3.65625 66.2695V50.9386C3.65625 49.7935 4.58551 48.8652 5.73178 48.8652H15.6534C16.7997 48.8652 17.729 49.7935 17.729 50.9386V66.2695C17.729 67.4145 16.7997 68.3428 15.6534 68.3428ZM7.80717 64.1962H13.5779V53.0119H7.80717V64.1962Z" fill="currentColor" />
    <path d="M32.5716 68.3443H22.6497C21.5035 68.3443 20.5742 67.416 20.5742 66.271V44.0655C20.5742 42.9205 21.5035 41.9922 22.6497 41.9922H32.5716C33.7178 41.9922 34.6471 42.9205 34.6471 44.0655V66.271C34.6471 67.416 33.7178 68.3443 32.5716 68.3443ZM24.7253 64.1977H30.496V46.1388H24.7253V64.1977Z" fill="currentColor" />
    <path d="M49.4895 68.3443H39.5677C38.4215 68.3443 37.4922 67.416 37.4922 66.271V36.9053C37.4922 35.7603 38.4215 34.832 39.5677 34.832H49.4895C50.6358 34.832 51.5651 35.7603 51.5651 36.9053V66.271C51.5649 67.416 50.6357 68.3443 49.4895 68.3443ZM41.6431 64.1977H47.414V38.9787H41.6431V64.1977Z" fill="currentColor" />
    <path d="M66.2667 68.3433H56.3451C55.1988 68.3433 54.2695 67.415 54.2695 66.27V29.8819C54.2695 28.7369 55.1988 27.8086 56.3451 27.8086H66.2667C67.413 27.8086 68.3423 28.7369 68.3423 29.8819V66.27C68.3423 67.415 67.413 68.3433 66.2667 68.3433ZM58.4206 64.1967H64.1913V31.9552H58.4206V64.1967Z" fill="currentColor" />
</svg>
    