<svg width="56" height="40" viewBox="0 0 56 40" fill="none" xmlns="http://www.w3.org/2000/svg">
    <path d="M27.2734 35.8777L27.1286 17.3812C27.0759 13.1785 29.863 10.2636 38.202 7.60584L50.4854 3.79643C50.5064 7.9236 50.4381 11.61 50.5769 14.4671C50.7809 17.5403 50.6964 20.6261 50.3246 23.6834C50.1848 24.6839 49.8444 25.6455 49.3241 26.51C48.8038 27.3746 48.1143 28.1241 47.2974 28.7133C44.1255 31.0184 38.2251 32.4228 27.2734 35.8777Z" fill="#D2B467" />
    <path d="M3.73242 4.06977L3.76868 22.5746C3.76861 26.7723 6.59324 29.7195 14.9412 32.2084L27.2946 35.8779C27.276 31.7497 27.2493 28.0658 27.2911 25.2041C27.4683 22.1304 27.3474 19.047 26.9302 15.9973C26.786 14.9965 26.437 14.0366 25.9049 13.1777C25.3729 12.3188 24.6693 11.5794 23.8383 11.006C20.6759 8.7346 14.754 7.38881 3.73242 4.06977Z" fill="#F8F7EC" />
</svg>
    