<svg width="24" height="25" viewBox="0 0 24 25" fill="none" xmlns="http://www.w3.org/2000/svg">
    <path d="M20.447 20.6698H16.893V15.1008C16.893 13.7728 16.866 12.0638 15.041 12.0638C13.188 12.0638 12.905 13.5088 12.905 15.0028V20.6698H9.351V9.21777H12.765V10.7788H12.811C13.288 9.87877 14.448 8.92877 16.181 8.92877C19.782 8.92877 20.448 11.2988 20.448 14.3838V20.6698H20.447ZM5.337 7.65077C4.193 7.65077 3.274 6.72477 3.274 5.58577C3.274 4.44777 4.194 3.52277 5.337 3.52277C6.477 3.52277 7.401 4.44777 7.401 5.58577C7.401 6.72477 6.476 7.65077 5.337 7.65077ZM7.119 20.6698H3.555V9.21777H7.119V20.6698ZM22.225 0.217773H1.771C0.792 0.217773 0 0.991773 0 1.94677V22.4888C0 23.4448 0.792 24.2178 1.771 24.2178H22.222C23.2 24.2178 24 23.4448 24 22.4888V1.94677C24 0.991773 23.2 0.217773 22.222 0.217773H22.225Z" fill="currentColor" />
</svg>
    