<svg width="24" height="24" viewBox="0 0 24 24" fill="none" xmlns="http://www.w3.org/2000/svg">
    <path d="M14.7925 16.2975C14.3994 15.9072 14.3983 15.2717 14.79 14.88L16.67 13H8C7.44771 13 7 12.5523 7 12C7 11.4477 7.44772 11 8 11H16.67L14.79 9.12C14.3983 8.72829 14.3994 8.09284 14.7925 7.70251C15.1836 7.31412 15.8152 7.31524 16.205 7.705L20.5 12L16.205 16.295C15.8152 16.6848 15.1836 16.6859 14.7925 16.2975ZM19 3C19.5304 3 20.0391 3.21071 20.4142 3.58579C20.7893 3.96086 21 4.46957 21 5V7.25578C21 8.14669 19.9229 8.59286 19.2929 7.96289C19.1054 7.77536 19 7.521 19 7.25579V5H5V19H19V16.7442C19 16.479 19.1054 16.2246 19.2929 16.0371C19.9229 15.4071 21 15.8533 21 16.7442V19C21 19.5304 20.7893 20.0391 20.4142 20.4142C20.0391 20.7893 19.5304 21 19 21H5C3.89 21 3 20.1 3 19V5C3 3.89 3.89 3 5 3H19Z" fill="currentColor" />
</svg>
    