<svg width="96" height="60" viewBox="0 0 96 60" fill="none" xmlns="http://www.w3.org/2000/svg">
    <path fill-rule="evenodd" clip-rule="evenodd" d="M23.8226 8.48239L47.9881 2.23438L72.1998 8.48239C83.9703 11.5202 94.3996 17.7682 94.3996 29.1224C94.3996 40.4765 83.9703 46.7246 72.1998 49.7624L47.9881 55.9889L23.8226 49.7408C12.0289 46.703 1.59961 40.455 1.59961 29.1008C1.59961 17.7467 12.0289 11.4987 23.8226 8.48239Z" fill="#39474F" />
    <path d="M51.5024 18.7396C51.1787 19.9461 50.2768 20.6571 49.1437 21.0233C49.0512 21.0449 48.9587 21.0664 48.8662 21.0879C48.7968 21.1095 48.7275 21.1095 48.6581 21.131C48.6118 21.131 48.5193 21.1526 48.4731 21.1526C48.3575 21.1741 48.2187 21.1741 48.1956 21.1741C48.1262 21.1741 42.9694 21.6697 42.9694 21.6697V21.6481L43.9637 16.8221C43.9637 16.8221 44.01 16.5851 44.0331 16.542C44.3337 15.3139 45.0506 14.6245 46.0681 14.1936C46.2762 14.1074 46.4612 14.0428 46.6694 13.9997C46.785 13.9781 46.9931 13.935 47.1781 13.9135C47.34 13.892 47.9643 13.8489 47.9643 13.8489L52.5893 13.418V13.4395L51.5949 18.2656C51.5949 18.2656 51.5487 18.481 51.5487 18.5241C51.5487 18.5241 51.5256 18.5887 51.5256 18.6534C51.5256 18.6749 51.5256 18.718 51.5024 18.7396ZM56.7287 18.955C57.4455 18.7396 58.0005 18.2871 58.2087 17.533C58.2087 17.533 58.2087 17.49 58.2318 17.4684C58.2318 17.4253 58.2549 17.4038 58.2549 17.3822C58.2549 17.3607 58.278 17.2314 58.278 17.2314L58.9024 14.1936V14.172L55.9887 14.4306C55.9887 14.4306 55.5955 14.4737 55.4799 14.4737C55.3643 14.4952 55.2255 14.5168 55.1562 14.5168C55.0174 14.5598 54.9018 14.5814 54.7862 14.646C54.1387 14.9261 53.6993 15.357 53.5143 16.1326C53.5143 16.1542 53.4681 16.305 53.4681 16.305L52.8437 19.3428V19.3644C52.8437 19.3644 56.0812 19.0627 56.1274 19.0627C56.1274 19.0627 56.2199 19.0627 56.2893 19.0412C56.3355 19.0412 56.3818 19.0196 56.4049 19.0196C56.4512 19.0196 56.4974 18.9981 56.5205 18.9981C56.613 18.9981 56.6824 18.9765 56.7287 18.955ZM42.0906 19.0412C42.0906 19.0412 42.0906 18.9981 42.1138 18.9765C42.1138 18.9335 42.1369 18.8904 42.1369 18.8904C42.1369 18.8688 42.16 18.7396 42.16 18.7396L42.7844 15.7017V15.6802L39.8706 15.9387C39.8706 15.9387 39.4775 15.9818 39.3619 15.9818C39.2463 16.0034 39.1075 16.0249 39.0382 16.0249C38.8994 16.0464 38.7838 16.0895 38.6682 16.1542C38.1132 16.3912 37.6969 16.7574 37.4657 17.3607C37.4425 17.4469 37.3963 17.5546 37.3732 17.6408C37.3732 17.6623 37.3269 17.8131 37.3269 17.8131L36.7025 20.851C36.7025 20.851 39.94 20.5493 39.9863 20.5493C39.9863 20.5493 40.0788 20.5493 40.1481 20.5278C40.1944 20.5278 40.2406 20.5062 40.2638 20.5062C40.31 20.5062 40.3563 20.4847 40.3794 20.4847C40.4256 20.4631 40.495 20.4631 40.5413 20.4416C41.3275 20.2477 41.8825 19.7953 42.0906 19.0412ZM51.9649 24.6429C51.9418 24.6429 51.8956 24.6429 51.8724 24.6429C51.4099 24.7075 51.0399 25.0738 51.0168 25.5262V25.5693V34.5104H52.5662H52.6356C52.6818 34.5104 52.7281 34.5104 52.7743 34.4889C53.1906 34.4242 53.5374 34.1011 53.6068 33.7133C53.6068 33.6702 53.6068 33.6486 53.6068 33.6055C53.6068 33.584 53.6068 33.4978 53.6068 33.4978V24.6429H52.0112C52.0343 24.6429 51.9881 24.6429 51.9649 24.6429ZM37.8357 24.6429C37.4194 24.7075 37.0957 24.9876 37.0263 25.3754C37.0263 25.4185 37.0032 25.4831 37.0032 25.5262C37.0032 25.5693 37.0032 25.6986 37.0032 25.6986V30.0506C37.0032 30.0506 33.1644 25.8278 32.5169 25.0953C32.4476 25.0307 32.3551 24.9229 32.3319 24.9014C32.2163 24.7937 32.0544 24.7075 31.8926 24.6644C31.8232 24.6429 31.7538 24.6429 31.6613 24.6429C31.6613 24.6429 31.6382 24.6429 31.6151 24.6429H30.0426V34.5104H31.6382C31.6382 34.5104 31.6382 34.5104 31.6613 34.5104C32.2163 34.5104 32.6557 34.1011 32.6557 33.584V33.5624V28.9949L36.8875 33.6486C36.8875 33.6486 37.35 34.1657 37.535 34.295C37.7432 34.4458 38.0207 34.532 38.2982 34.532C38.9457 34.532 39.4775 34.1011 39.57 33.5409C39.57 33.5194 39.5932 33.4763 39.5932 33.4332C39.5932 33.3901 39.5932 33.2177 39.5932 33.2177V24.6429H38.0207C37.9282 24.6429 37.8819 24.6429 37.8357 24.6429ZM16.0983 24.6429C15.8208 24.6429 15.5433 24.7506 15.3814 24.9445L12.514 27.9392L9.69272 24.9876C9.53085 24.7937 9.25335 24.6644 8.97585 24.6429C8.95272 24.6429 8.90647 24.6429 8.88335 24.6429H8.81398C8.49023 24.6429 7.33398 24.6429 7.33398 24.6429V34.5104H8.90647C8.90647 34.5104 8.90647 34.5104 8.9296 34.5104C9.4846 34.5104 9.92397 34.1011 9.92397 33.584V28.1762L12.514 30.8909L15.1271 28.1762V33.584C15.1271 34.0795 15.5433 34.4889 16.0752 34.5104C16.0983 34.5104 16.2139 34.5104 16.2139 34.5104H17.6939V24.6429C17.6939 24.6429 16.5839 24.6429 16.2139 24.6429H16.0983ZM71.1817 27.4652C71.6904 27.0559 72.4536 26.7973 73.2398 26.7973C73.5404 26.7973 73.8179 26.8189 74.1417 26.862C74.2342 26.8835 74.581 26.9482 74.766 26.9912C75.0204 27.0559 75.2517 27.1421 75.506 27.2282C75.5523 27.2498 75.691 27.2929 75.7835 27.336C75.876 27.3791 75.9454 27.4006 75.9917 27.4221C76.0379 27.4437 76.0842 27.4437 76.1073 27.4652C76.1998 27.4868 76.3154 27.5083 76.431 27.5083C77.1479 27.5083 77.7029 26.9697 77.7029 26.3234C77.7029 26.0217 77.5873 25.7416 77.3792 25.5262C77.3098 25.4616 77.2404 25.3754 77.1479 25.3323C77.0554 25.2677 76.8704 25.203 76.801 25.1599C76.616 25.0738 76.431 25.0091 76.2229 24.9229C75.9223 24.8152 75.5985 24.7075 75.2517 24.6429C75.0667 24.5998 74.7892 24.5351 74.6736 24.5351C74.4192 24.492 74.1648 24.4705 73.9104 24.449C73.6792 24.4274 73.4479 24.4274 73.2167 24.4274C71.8061 24.4274 70.5111 24.8798 69.4936 25.6555C68.268 26.6034 67.528 28.0254 67.528 29.5982C67.528 30.5031 67.7592 31.3649 68.1986 32.1189C68.638 32.873 69.2855 33.5194 70.0948 33.9718C70.9967 34.4889 72.0373 34.769 73.1704 34.769C73.6329 34.769 74.1186 34.7259 74.5579 34.6397C74.8586 34.575 75.2517 34.4889 75.5754 34.3811C76.0148 34.2303 76.3385 34.1011 76.5235 33.9933C76.7779 33.8425 76.9629 33.6917 77.1248 33.5193C77.2635 33.3685 77.356 33.2177 77.4254 33.0669C77.5179 32.8515 77.5642 32.6576 77.5642 32.4852C77.5873 32.2913 77.5873 28.7579 77.5873 28.7579H72.9854V29.6413C72.9854 29.6413 72.9854 29.8352 72.9854 29.8783C72.9854 29.9214 73.0086 29.9644 73.0086 30.0075C73.1011 30.3522 73.4248 30.6108 73.8179 30.6754C73.841 30.6754 73.9335 30.697 73.9335 30.697H74.0029H74.9742V32.0974C74.8123 32.1405 74.3729 32.2697 74.0492 32.3344C73.7254 32.399 73.3786 32.4206 73.1242 32.4206C72.4767 32.4206 71.8986 32.2482 71.3898 31.9681C71.1817 31.8604 70.9967 31.7096 70.8348 31.5588C70.6498 31.3864 70.5111 31.1925 70.3955 30.9986C70.1642 30.6108 70.0255 30.1368 70.0255 29.6197C70.118 28.7148 70.5111 27.9823 71.1817 27.4652ZM64.2442 24.6429C63.828 24.7075 63.5042 24.9876 63.4349 25.3754C63.4349 25.4185 63.4117 25.4831 63.4117 25.5262C63.4117 25.5693 63.4117 25.6986 63.4117 25.6986V30.0506C63.4117 30.0506 59.573 25.8278 58.9255 25.0953C58.8561 25.0307 58.7637 24.9229 58.7405 24.9014C58.6249 24.7937 58.463 24.7075 58.3012 24.6644C58.2318 24.6429 58.1624 24.6429 58.0699 24.6429C58.0699 24.6429 58.0468 24.6429 58.0237 24.6429H56.4512V34.5104H58.0468C58.0468 34.5104 58.0468 34.5104 58.0699 34.5104C58.6249 34.5104 59.0643 34.1011 59.0643 33.584V33.5624V28.9949L63.2961 33.6486C63.2961 33.6486 63.7586 34.1657 63.9436 34.295C64.1517 34.4458 64.4292 34.532 64.7067 34.532C65.3542 34.532 65.8861 34.1011 65.9786 33.5409C65.9786 33.5194 66.0017 33.4763 66.0017 33.4332C66.0017 33.3901 66.0017 33.2177 66.0017 33.2177V24.6429H64.4292C64.3367 24.6429 64.2905 24.6429 64.2442 24.6429ZM88.5716 33.5193C88.5716 34.1872 87.9935 34.7259 87.2766 34.7259C87.0685 34.7259 86.8603 34.6828 86.6753 34.5966C86.5597 34.532 86.4441 34.4673 86.3516 34.3596C86.3054 34.3165 86.2591 34.2519 86.2128 34.2088C86.1897 34.1872 86.1435 34.1226 86.1204 34.0364C86.0741 33.9287 85.9816 33.7133 85.9816 33.7133L85.5654 32.6576H81.8423C81.8423 32.6576 81.6341 33.1962 81.4723 33.584C81.426 33.7133 81.3798 33.821 81.3335 33.9072C81.3104 33.9718 81.241 34.1226 81.1948 34.1657C81.1485 34.2303 81.1023 34.2734 81.056 34.3381C80.8248 34.5966 80.4779 34.7474 80.0848 34.7474C79.3679 34.7474 78.7898 34.2088 78.7898 33.5409C78.7898 33.3901 78.8129 33.2393 78.8823 33.0885C78.8823 33.0669 82.4666 24.6644 82.4666 24.6644H84.1779C84.201 24.6644 84.2472 24.6644 84.2704 24.6644C84.3166 24.6644 84.3397 24.6644 84.3629 24.6859C84.4091 24.6859 84.4554 24.7075 84.5016 24.729C84.5479 24.7506 84.5941 24.7721 84.6404 24.7937C84.7097 24.8368 84.7791 24.8798 84.8485 24.9229C84.9179 24.9876 84.9641 25.0522 85.0335 25.1384C85.0566 25.1815 85.1029 25.2677 85.1029 25.2677L88.2941 32.7437C88.2941 32.7437 88.4791 33.1315 88.5022 33.2177C88.5485 33.3039 88.5716 33.4116 88.5716 33.5193ZM84.7791 30.8478L83.6922 28.09L82.5823 30.8262H84.7791V30.8478ZM28.7013 33.1962C28.7245 33.3039 28.7476 33.4116 28.7476 33.5193C28.7476 34.1872 28.1695 34.7259 27.4526 34.7259C27.2445 34.7259 27.0364 34.6828 26.8514 34.5966C26.7357 34.532 26.6201 34.4673 26.5276 34.3596C26.4814 34.3165 26.4351 34.2519 26.3889 34.2088C26.3657 34.1872 26.3195 34.1226 26.2964 34.0364C26.2501 33.9287 26.1576 33.7133 26.1576 33.7133L25.7414 32.6576H22.0183C22.0183 32.6576 21.8101 33.1962 21.6483 33.584C21.602 33.7133 21.5558 33.821 21.5095 33.9072C21.4864 33.9718 21.417 34.1226 21.3708 34.1657C21.3245 34.2303 21.2783 34.2734 21.232 34.3381C21.0008 34.5966 20.6539 34.7474 20.2608 34.7474C19.5439 34.7474 18.9658 34.2088 18.9658 33.5409C18.9658 33.3901 18.9889 33.2393 19.0583 33.0885C19.0583 33.0669 22.6658 24.6644 22.6658 24.6644H24.377C24.4001 24.6644 24.4464 24.6644 24.4695 24.6644C24.5157 24.6644 24.5389 24.6644 24.562 24.6859C24.6082 24.6859 24.6545 24.7075 24.7007 24.729C24.747 24.7506 24.7932 24.7721 24.8395 24.7937C24.9089 24.8368 24.9782 24.8798 25.0476 24.9229C25.117 24.9876 25.1632 25.0522 25.2326 25.1384C25.2557 25.1815 25.302 25.2677 25.302 25.2677L28.4932 32.7437C28.4932 32.7006 28.6782 33.0885 28.7013 33.1962ZM24.9782 30.8478L23.8683 28.09L22.7583 30.8262H24.9782V30.8478ZM48.4731 24.6429H48.45H48.4037H41.0269V26.0864V26.1295C41.0269 26.1941 41.0269 26.2372 41.05 26.3018C41.1194 26.6896 41.4431 26.9697 41.8594 27.0559C41.9056 27.0559 41.9519 27.0774 41.9981 27.0774C42.0213 27.0774 42.0675 27.0774 42.0675 27.0774H44.1025V34.5535H45.6519H45.6981C45.7675 34.5535 45.8137 34.5535 45.8831 34.532C46.2994 34.4673 46.6 34.1657 46.6925 33.7779C46.6925 33.7348 46.7156 33.6917 46.7156 33.6486C46.7156 33.6271 46.7156 33.584 46.7156 33.584V27.0774H48.2881C48.2881 27.0774 48.3575 27.0774 48.3806 27.0774C48.4037 27.0774 48.4268 27.0774 48.45 27.0774C48.4962 27.0774 48.5425 27.0774 48.5656 27.0774C49.2131 27.0128 49.7218 26.4957 49.7218 25.8709C49.7218 25.1815 49.1668 24.6644 48.4731 24.6429Z" fill="white" />
</svg>
    