<svg width="68" height="42" viewBox="0 0 68 42" fill="none" xmlns="http://www.w3.org/2000/svg">
    <path fill-rule="evenodd" clip-rule="evenodd" d="M16.1405 4.87276L33.7094 0L51.3021 4.87276C59.8484 7.25845 67.4366 12.1312 67.4366 20.9761C67.4366 29.8211 59.8484 34.7416 51.3021 37.0795L33.7094 42L16.1405 37.1272C7.58223 34.7594 0 29.8688 0 21C0 12.1312 7.58223 7.24056 16.1405 4.89662" fill="#ED1C24" />
    <path d="M36.2625 12.8948C36.1602 13.3173 35.9484 13.7053 35.6485 14.0195C35.3485 14.3337 34.9711 14.5629 34.5544 14.684C34.4908 14.7082 34.4251 14.7262 34.358 14.7377L34.2152 14.7735H34.0783H33.8819C33.8284 14.7735 30.0848 15.1552 30.0848 15.1552L30.8109 11.3799C30.8109 11.3799 30.8466 11.189 30.8526 11.1652C30.9289 10.7594 31.1041 10.3788 31.3627 10.0572C31.6212 9.7357 31.9551 9.4832 32.3345 9.32222C32.4746 9.25816 32.62 9.20628 32.769 9.16715C32.8464 9.16715 33.0011 9.11943 33.1439 9.10154L33.7391 9.04786L37.1017 8.71387L36.3458 12.525L36.3101 12.7218C36.3101 12.7218 36.3101 12.7755 36.3101 12.8172C36.3101 12.859 36.3101 12.8888 36.3101 12.9007L36.2625 12.8948ZM40.1072 13.0797C40.364 12.9943 40.5941 12.8432 40.7747 12.6413C40.9553 12.4394 41.0801 12.1937 41.1368 11.9286V11.8749C41.138 11.855 41.138 11.8351 41.1368 11.8153V11.69L41.5951 9.30433L39.5299 9.54289L39.1669 9.57868L38.9288 9.62043C38.8347 9.64327 38.743 9.67523 38.655 9.71586C38.4165 9.81787 38.2069 9.97747 38.0449 10.1804C37.8829 10.3833 37.7736 10.6233 37.7266 10.8789V11.0161L37.2683 13.4017L39.6489 13.1632H39.768L39.8751 13.1214H39.9644L40.0893 13.0856L40.1072 13.0797ZM29.4123 13.1214C29.4152 13.1057 29.4152 13.0895 29.4123 13.0737V13.0081V12.8888L29.8765 10.5031L27.8114 10.7357L27.4543 10.7715L27.2162 10.8133C27.1221 10.8361 27.0304 10.8681 26.9424 10.9087C26.738 10.9958 26.5543 11.1254 26.4035 11.2888C26.2527 11.4523 26.1382 11.6459 26.0676 11.857C26.0435 11.9314 26.0236 12.007 26.0081 12.0836L25.9783 12.2149L25.52 14.6005L27.9006 14.362H28.0197H28.1089H28.1982L28.3232 14.3262C28.5982 14.2461 28.8456 14.091 29.0379 13.8783C29.2302 13.6656 29.3598 13.4036 29.4123 13.1214ZM36.6018 17.5111H36.5363C36.3727 17.5399 36.2241 17.6246 36.1156 17.7506C36.0071 17.8767 35.9455 18.0365 35.9411 18.2029V25.2228H37.2148C37.3631 25.1968 37.4999 25.1256 37.6064 25.0189C37.7129 24.9122 37.784 24.7751 37.8099 24.6264C37.8099 24.6264 37.8099 24.5787 37.8099 24.5489V17.5111H36.6196H36.6018ZM26.3413 17.5111C26.1964 17.5335 26.0617 17.5998 25.9553 17.7011C25.849 17.8023 25.776 17.9337 25.7462 18.0777C25.743 18.1194 25.743 18.1612 25.7462 18.2029V18.3282V21.7278L22.455 17.8928C22.4134 17.8358 22.3676 17.782 22.3181 17.7318C22.2284 17.645 22.1176 17.5834 21.9967 17.5528C21.9414 17.5467 21.8855 17.5467 21.8301 17.5528H20.6398V25.2228H21.8301C22.0211 25.2228 22.2043 25.1468 22.3393 25.0114C22.4744 24.8761 22.5502 24.6925 22.5502 24.5011V20.9226L25.6272 24.5608C25.7701 24.7384 25.9252 24.9058 26.0914 25.0618C26.2515 25.181 26.4454 25.2458 26.6449 25.2467C26.8671 25.2441 27.0813 25.1632 27.25 25.0181C27.4187 24.8731 27.531 24.6732 27.5674 24.4534C27.5702 24.4257 27.5702 24.3977 27.5674 24.3699C27.5674 24.3282 27.5674 24.2089 27.5674 24.2089V17.5111H26.3235H26.3413ZM10.5341 17.5111C10.436 17.5111 10.339 17.5312 10.2489 17.5702C10.1588 17.6092 10.0777 17.6662 10.0104 17.7377L7.92141 20.0817L5.87409 17.7854C5.81152 17.7062 5.73317 17.6409 5.64403 17.5936C5.55488 17.5464 5.45689 17.5183 5.35631 17.5111H4.166V25.2228H5.30869C5.50024 25.2228 5.68402 25.147 5.82002 25.0118C5.95602 24.8766 6.03321 24.6931 6.03478 24.5011V20.2785L7.92141 22.4017L9.81399 20.2785V24.5011C9.81383 24.6875 9.8856 24.8667 10.0143 25.0012C10.143 25.1357 10.3186 25.2151 10.5044 25.2228H11.6947V17.5111H10.5341ZM50.5462 19.7119C50.973 19.3687 51.5047 19.1834 52.0519 19.187C52.2692 19.1871 52.4862 19.2051 52.7006 19.2407C52.8512 19.2636 53.0002 19.2955 53.147 19.3361C53.3296 19.3875 53.5086 19.4512 53.6826 19.527L53.8909 19.6165L54.0397 19.6821H54.129C54.2061 19.6909 54.284 19.6909 54.3611 19.6821C54.5407 19.6845 54.717 19.6343 54.8686 19.5377C55.0201 19.4411 55.1402 19.3023 55.2142 19.1383C55.2881 18.9742 55.3126 18.7922 55.2848 18.6144C55.257 18.4366 55.1779 18.2708 55.0574 18.1373C55.0071 18.0781 54.949 18.0259 54.8848 17.9823C54.8059 17.9358 54.7245 17.894 54.6408 17.857C54.498 17.7854 54.373 17.7377 54.2242 17.6781C53.9963 17.59 53.7639 17.5144 53.5279 17.4514C53.391 17.4157 53.1886 17.3739 53.1053 17.362C52.9268 17.3322 52.7423 17.3023 52.5637 17.2904C52.3932 17.2816 52.2224 17.2816 52.0519 17.2904C51.0671 17.2852 50.1114 17.6248 49.3499 18.2507C48.6417 18.8589 48.1623 19.6915 47.9913 20.6104C47.8202 21.5293 47.9678 22.4791 48.4096 23.3023C48.7352 23.8999 49.2112 24.4016 49.7903 24.7576C50.4652 25.1588 51.2376 25.3652 52.0221 25.354C52.3619 25.3534 52.7007 25.3194 53.0339 25.2526C53.2863 25.2002 53.5349 25.1304 53.7778 25.0439C54.0195 24.966 54.2527 24.8641 54.4742 24.7397C54.6372 24.635 54.7854 24.5086 54.9146 24.364C55.004 24.2565 55.0763 24.1358 55.1288 24.0061C55.186 23.8627 55.224 23.7122 55.2419 23.5588C55.2419 23.4037 55.2419 20.6423 55.2419 20.6423H51.9031V21.3282C51.9031 21.3282 51.9031 21.4713 51.9031 21.519C51.9002 21.5528 51.9002 21.5867 51.9031 21.6204C51.9398 21.7563 52.0159 21.8782 52.1219 21.9706C52.2279 22.063 52.3589 22.1217 52.4983 22.1393H52.5875H53.3493V23.2248C53.1304 23.2976 52.9079 23.3593 52.6827 23.4097C52.4607 23.4498 52.2358 23.4717 52.0102 23.4753C51.5671 23.4774 51.1322 23.3555 50.7545 23.1234C50.6091 23.0349 50.4752 22.9287 50.3557 22.8073C50.2284 22.676 50.1203 22.5275 50.0343 22.366C49.8548 22.0392 49.7625 21.6714 49.7665 21.2984C49.764 20.9823 49.8316 20.6696 49.9644 20.3828C50.0972 20.0961 50.2918 19.8425 50.5343 19.6403L50.5462 19.7119ZM45.5052 17.4455C45.3602 17.4679 45.2256 17.5342 45.1192 17.6355C45.0128 17.7367 44.9399 17.8681 44.9101 18.0121C44.9101 18.0479 44.9101 18.0956 44.9101 18.1373V21.6622L41.6605 17.8928L41.5237 17.7318C41.4339 17.645 41.3232 17.5834 41.2023 17.5528C41.1469 17.547 41.091 17.547 41.0356 17.5528H39.8751V25.2228H41.0654C41.1605 25.2236 41.2547 25.2055 41.3428 25.1696C41.4309 25.1337 41.511 25.0807 41.5785 25.0136C41.646 24.9465 41.6995 24.8667 41.7361 24.7787C41.7727 24.6908 41.7915 24.5964 41.7915 24.5011V20.9226L44.8684 24.5608C45.0113 24.7384 45.1665 24.9058 45.3326 25.0618C45.4927 25.181 45.6867 25.2458 45.8861 25.2467C46.1 25.2333 46.3031 25.1475 46.462 25.0034C46.621 24.8593 46.7264 24.6654 46.761 24.4534C46.761 24.4534 46.761 24.3938 46.761 24.3699C46.761 24.3461 46.761 24.2089 46.761 24.2089V17.5111H45.5171L45.5052 17.4455ZM63.1812 24.4534C63.1812 24.7039 63.0823 24.9442 62.9062 25.1219C62.73 25.2996 62.4908 25.4002 62.2409 25.4017C62.0892 25.4046 61.9394 25.3676 61.8064 25.2944C61.7155 25.2492 61.6329 25.1887 61.5624 25.1155C61.5255 25.0785 61.4917 25.0386 61.4612 24.9962L61.3898 24.865L61.2827 24.6025L60.9732 23.7795H58.3248L58.051 24.5011C58.0153 24.6025 57.9796 24.692 57.9558 24.7516C57.9312 24.8224 57.8993 24.8903 57.8606 24.9544C57.8208 24.9913 57.7769 25.0233 57.7296 25.0499C57.6042 25.192 57.439 25.2931 57.2556 25.3402C57.0721 25.3873 56.8788 25.3781 56.7006 25.3139C56.5224 25.2496 56.3675 25.1333 56.256 24.9799C56.1445 24.8265 56.0815 24.6431 56.0751 24.4534C56.0746 24.3344 56.0989 24.2166 56.1465 24.1075L58.7592 17.5469H60.0626H60.134L60.2412 17.5767L60.3364 17.6184C60.3916 17.6487 60.4434 17.6847 60.4911 17.7258C60.541 17.7726 60.5832 17.8269 60.6161 17.8868L60.6697 17.9942L62.9908 23.8391C62.9908 23.8391 63.1158 24.1433 63.1336 24.2149C63.1575 24.2982 63.1696 24.3846 63.1693 24.4713L63.1812 24.4534ZM60.4316 22.3779L59.6282 20.2367L58.8188 22.3779H60.4316ZM19.6876 24.191C19.7115 24.2744 19.7235 24.3607 19.7233 24.4475C19.7233 24.699 19.6236 24.9402 19.4461 25.118C19.2686 25.2959 19.0279 25.3958 18.777 25.3958C18.6255 25.397 18.4761 25.3601 18.3425 25.2884C18.2534 25.243 18.1729 25.1825 18.1045 25.1095C18.0659 25.0741 18.0319 25.034 18.0033 24.9902C17.9765 24.9482 17.9526 24.9043 17.9319 24.859C17.8902 24.7755 17.8247 24.5966 17.8247 24.5966L17.5153 23.7735H14.8371L14.5693 24.4952C14.5276 24.5966 14.4919 24.686 14.474 24.7457C14.4562 24.8053 14.3967 24.9186 14.3788 24.9485C14.3505 24.9854 14.3186 25.0194 14.2836 25.0499C14.1581 25.192 13.993 25.2931 13.8095 25.3402C13.626 25.3873 13.4327 25.3781 13.2545 25.3139C13.0763 25.2496 12.9214 25.1333 12.8099 24.9799C12.6984 24.8265 12.6354 24.6431 12.6291 24.4534C12.6296 24.3351 12.6517 24.2178 12.6945 24.1075L15.3072 17.5469H16.6166H16.688L16.7951 17.5767L16.8903 17.6184C17.0056 17.6816 17.1021 17.7742 17.1701 17.8868L17.2236 17.9942L19.5388 23.8391C19.5388 23.8391 19.6697 24.1433 19.6876 24.2149V24.191ZM16.9796 22.3779L16.1762 20.2367L15.3727 22.3779H16.9796ZM34.0545 17.5349H28.6505V18.6681C28.6473 18.7118 28.6473 18.7557 28.6505 18.7994C28.6748 18.9488 28.7453 19.0867 28.8521 19.1938C28.9589 19.3008 29.0966 19.3715 29.2457 19.3958H29.3469H30.8824V25.2347H32.0727C32.1161 25.2409 32.1602 25.2409 32.2036 25.2347C32.3527 25.2104 32.4904 25.1398 32.5972 25.0327C32.704 24.9257 32.7745 24.7877 32.7987 24.6383C32.8017 24.6026 32.8017 24.5667 32.7987 24.531V19.3958H34.1557C34.3923 19.3701 34.6104 19.2554 34.766 19.0749C34.9216 18.8943 35.0031 18.6614 34.994 18.423C34.985 18.1847 34.886 17.9586 34.7172 17.7905C34.5484 17.6224 34.3222 17.5246 34.0843 17.5171" fill="white" />
</svg>