<svg width="24" height="24" viewBox="0 0 24 24" fill="none" xmlns="http://www.w3.org/2000/svg">
    <path fill-rule="evenodd" clip-rule="evenodd" d="M1 4.5C1 3.67157 1.67157 3 2.5 3H21.5C22.3284 3 23 3.67157 23 4.5C23 5.32843 22.3284 6 21.5 6H2.5C1.67157 6 1 5.32843 1 4.5ZM1 11.5C1 10.6716 1.67157 10 2.5 10H21.5C22.3284 10 23 10.6716 23 11.5C23 12.3284 22.3284 13 21.5 13H2.5C1.67157 13 1 12.3284 1 11.5ZM2.5 17C1.67157 17 1 17.6716 1 18.5C1 19.3284 1.67157 20 2.5 20H21.5C22.3284 20 23 19.3284 23 18.5C23 17.6716 22.3284 17 21.5 17H2.5Z" fill="currentColor" />
</svg>
    