<svg width="24" height="24" viewBox="0 0 24 24" fill="none" xmlns="http://www.w3.org/2000/svg">
    <path d="M15.7027 7.32581H10.3769C9.9075 7.32581 9.52702 7.70624 9.52702 8.17568C9.52702 8.64508 9.90745 9.02555 10.3769 9.02555H15.7027C16.1724 9.02555 16.5526 8.64512 16.5526 8.17568C16.5525 7.70624 16.1721 7.32581 15.7027 7.32581Z" fill="currentColor" />
    <path d="M17.7423 11.4334H10.3769C9.9075 11.4334 9.52702 11.8139 9.52702 12.2833C9.52702 12.7527 9.90745 13.1332 10.3769 13.1332H17.7423C18.2117 13.1332 18.5922 12.7528 18.5922 12.2833C18.5922 11.8139 18.2117 11.4334 17.7423 11.4334Z" fill="currentColor" />
    <path d="M21.5949 2H6.55239C6.083 2 5.70252 2.38043 5.70252 2.84987V10.8669H4.20113C2.43596 10.8669 1 12.3031 1 14.068V18.7989C1 20.564 2.43596 22 4.20113 22C4.34559 22 4.48783 21.9904 4.62693 21.9717H18.6488C20.7417 21.9717 22.4448 20.2688 22.4448 18.1757V2.84987C22.4448 2.38043 22.0643 2 21.5949 2ZM5.70256 18.7989C5.70256 19.5272 5.18102 20.1363 4.49181 20.2719H4.20118V20.3003C3.37312 20.3003 2.69975 19.6266 2.69975 18.7988V14.068C2.69975 13.2402 3.37342 12.5666 4.20118 12.5666H5.7026V18.7989H5.70256ZM20.7451 18.1756C20.7451 19.3119 19.7853 20.2719 18.6488 20.2719H7.04278C7.27251 19.8309 7.40227 19.3297 7.40227 18.7989V3.69971H20.7451V18.1756Z" fill="currentColor" />
    <path d="M15.7027 15.2864H10.3769C9.9075 15.2864 9.52702 15.6668 9.52702 16.1363C9.52702 16.6057 9.90745 16.9862 10.3769 16.9862H15.7027C16.1724 16.9862 16.5526 16.6057 16.5526 16.1363C16.5525 15.6668 16.1721 15.2864 15.7027 15.2864Z" fill="currentColor" />
</svg>
    