<svg width="48" height="48" viewBox="0 0 48 48" fill="none" xmlns="http://www.w3.org/2000/svg">
    <path d="M12 0C10.35 0 9 1.35 9 3V45C9 46.65 10.35 48 12 48H42C43.65 48 45 46.65 45 45V12L33 0H12Z" fill="#E2E5E7" />
    <path d="M36 12H45L33 0V9C33 10.65 34.35 12 36 12Z" fill="#B0B7BD" />
    <path d="M45 21L36 12H45V21Z" fill="#CAD1D8" />
    <path d="M39 39C39 39.825 38.325 40.5 37.5 40.5H4.5C3.675 40.5 3 39.825 3 39V24C3 23.175 3.675 22.5 4.5 22.5H37.5C38.325 22.5 39 23.175 39 24V39Z" fill="#F15642" />
    <path d="M9.53845 28.4205C9.53845 28.0245 9.85045 27.5925 10.353 27.5925H13.1235C14.6835 27.5925 16.0875 28.6365 16.0875 30.6375C16.0875 32.5335 14.6835 33.5895 13.1235 33.5895H11.121V35.1735C11.121 35.7015 10.785 36 10.353 36C9.95695 36 9.53845 35.7015 9.53845 35.1735V28.4205ZM11.121 29.103V32.091H13.1235C13.9275 32.091 14.5635 31.3815 14.5635 30.6375C14.5635 29.799 13.9275 29.103 13.1235 29.103H11.121Z" fill="white" />
    <path d="M18.4364 36C18.0404 36 17.6084 35.784 17.6084 35.2575V28.4445C17.6084 28.014 18.0404 27.7005 18.4364 27.7005H21.1829C26.6639 27.7005 26.5439 36 21.2909 36H18.4364ZM19.1924 29.1645V34.5375H21.1829C24.4214 34.5375 24.5654 29.1645 21.1829 29.1645H19.1924Z" fill="white" />
    <path d="M28.4879 29.2605V31.167H31.5464C31.9784 31.167 32.4104 31.599 32.4104 32.0175C32.4104 32.4135 31.9784 32.7375 31.5464 32.7375H28.4879V35.256C28.4879 35.676 28.1894 35.9985 27.7694 35.9985C27.2414 35.9985 26.9189 35.676 26.9189 35.256V28.443C26.9189 28.0125 27.2429 27.699 27.7694 27.699H31.9799C32.5079 27.699 32.8199 28.0125 32.8199 28.443C32.8199 28.827 32.5079 29.259 31.9799 29.259H28.4879V29.2605Z" fill="white" />
    <path d="M37.5 40.5H9V42H37.5C38.325 42 39 41.325 39 40.5V39C39 39.825 38.325 40.5 37.5 40.5Z" fill="#CAD1D8" />
</svg>
    