<svg width="24" height="24" viewBox="0 0 24 24" fill="none" xmlns="http://www.w3.org/2000/svg">
    <g clip-path="url(#clip0)">
        <path d="M20.109 14.343C20.0187 14.4611 19.9422 14.6279 19.8206 14.6904C19.3795 14.9509 18.9209 15.1872 18.4659 15.4234C17.2177 16.0695 15.9694 16.7121 14.7212 17.3513C13.3317 18.046 11.9422 18.7512 10.5527 19.4668C9.38093 20.0643 8.21028 20.6664 7.04079 21.2731L2.40684 23.6769C2.21104 23.8124 1.99543 23.9167 1.76767 23.9861C1.65694 24.0105 1.54235 24.0117 1.43113 23.9896C1.31992 23.9675 1.21451 23.9225 1.12156 23.8576C1.06135 23.7625 1.0227 23.6554 1.00829 23.5438C0.993891 23.4321 1.00409 23.3187 1.03819 23.2115C1.29872 22.3465 1.6044 21.4954 1.8962 20.6409C2.29568 19.4772 2.69863 18.3135 3.09463 17.1463C3.51611 15.919 3.93412 14.6904 4.34865 13.4607C4.84192 11.9948 5.32477 10.5254 5.82151 9.06297C6.4051 7.35389 6.99911 5.64829 7.58617 3.94269C7.58617 3.9149 7.60701 3.89058 7.61396 3.86626C7.91965 2.90057 8.0447 2.86583 8.94787 3.23752C10.8328 4.01022 12.5896 5.06432 14.1585 6.36388C15.5756 7.52102 16.8191 8.87571 17.851 10.3865C18.6118 11.5224 19.2649 12.7416 19.9596 13.9262C20.021 14.0607 20.071 14.2001 20.109 14.343ZM19.3482 14.1798L19.2162 14.0096C19.0391 13.6622 18.8688 13.2766 18.6847 12.9258C17.2395 10.2614 15.2099 7.95866 12.7481 6.19019C11.5745 5.34752 10.3046 4.64784 8.96524 4.10595C8.3087 3.84542 8.32607 3.82805 8.10723 4.54017C7.91965 5.15155 7.7147 5.76292 7.50627 6.36735C7.20058 7.2462 6.87405 8.10422 6.57531 8.99349C6.09246 10.4177 5.6374 11.8524 5.15456 13.2801C4.63697 14.805 4.11244 16.3196 3.57401 17.8446C3.03558 19.3695 2.51105 20.9396 1.98651 22.4924C1.9662 22.607 1.96036 22.7237 1.96915 22.8398C2.09855 22.8442 2.22776 22.8266 2.35126 22.7877C3.20232 22.3604 4.04296 21.9123 4.89055 21.4816C6.62742 20.5923 8.40249 19.7099 10.1567 18.8172C12.1333 17.8098 14.1064 16.792 16.0829 15.7812C17.0509 15.2879 18.0224 14.7969 18.9974 14.3083C19.1116 14.2584 19.2288 14.2155 19.3482 14.1798Z" fill="currentColor" />
        <path d="M9.37521 0.00347834C9.535 0.0660055 9.82332 0.173691 10.1082 0.295272C12.9284 1.46246 15.498 3.16063 17.6774 5.29744C19.7275 7.31971 21.3971 9.69416 22.6066 12.3074C22.9297 13.0022 22.8776 13.5545 22.492 13.9887C21.7347 14.8433 20.6753 14.2736 20.3522 13.5719C18.888 10.3287 16.6314 7.50595 13.7903 5.36344C12.2289 4.21678 10.5223 3.2823 8.7152 2.58446C8.44744 2.46666 8.22514 2.26515 8.0817 2.01021C7.93825 1.75527 7.88141 1.46066 7.91972 1.17065C7.97995 0.832887 8.16067 0.528439 8.42833 0.313799C8.69599 0.0991586 9.03243 -0.0111009 9.37521 0.00347834ZM9.14942 0.719067C8.9725 0.818837 8.81391 0.948061 8.68046 1.10118C8.65282 1.18375 8.64377 1.27142 8.65398 1.3579C8.66419 1.44438 8.6934 1.52753 8.73952 1.60139C8.85532 1.75082 9.01229 1.86311 9.1911 1.92445C10.5265 2.4551 11.8064 3.11598 13.0122 3.89753C15.9365 5.78327 18.3618 8.34791 20.0812 11.373C20.4286 11.9809 20.7308 12.6131 21.0643 13.2314C21.2206 13.5232 21.4499 13.6969 21.7591 13.5788C21.9032 13.4883 22.0067 13.3456 22.0482 13.1806C22.0896 13.0155 22.0657 12.8408 21.9814 12.693C21.0091 10.5694 19.7208 8.60531 18.1603 6.86757C16.0026 4.40491 13.3214 2.45605 10.3131 1.1637C9.96227 1.01086 9.59753 0.885806 9.15984 0.719067H9.14942Z" fill="currentColor" />
        <path d="M9.39599 12.6548C8.72023 12.6349 8.07901 12.3517 7.60915 11.8656C7.13929 11.3795 6.87799 10.729 6.88101 10.053C6.88101 8.20148 7.89881 7.21842 9.56967 7.22536C11.0182 7.22536 12.0013 8.31611 12.0464 9.92793C12.0557 10.6408 11.7819 11.3282 11.285 11.8394C10.7881 12.3506 10.1088 12.6438 9.39599 12.6548ZM7.60702 9.94182C7.60634 10.4389 7.79668 10.9173 8.13868 11.278C8.48067 11.6388 8.9482 11.8543 9.44462 11.8802C9.69833 11.8789 9.94923 11.8269 10.1826 11.7275C10.416 11.628 10.6272 11.4829 10.8038 11.3008C10.9805 11.1187 11.119 10.9031 11.2113 10.6668C11.3036 10.4305 11.3477 10.1781 11.3413 9.92445C11.3529 9.4173 11.167 8.92548 10.8229 8.5528C10.4787 8.18013 10.0032 7.95576 9.49673 7.92706C8.46503 7.87842 7.61396 8.83717 7.60702 9.94182Z" fill="currentColor" />
        <path d="M8.35037 18.1711C8.06591 18.1542 7.79261 18.0545 7.56421 17.8841C7.3358 17.7137 7.16229 17.4802 7.06509 17.2123C6.6795 16.3717 6.2835 15.5345 5.90139 14.6939C5.81382 14.5333 5.75968 14.3566 5.74225 14.1745C5.72482 13.9924 5.74444 13.8086 5.79995 13.6343C5.85546 13.46 5.9457 13.2987 6.06522 13.1602C6.18474 13.0217 6.33107 12.9089 6.49539 12.8285C6.64446 12.7586 6.80614 12.7197 6.97066 12.714C7.13519 12.7083 7.29916 12.736 7.45269 12.7954C7.60623 12.8548 7.74614 12.9447 7.864 13.0596C7.98186 13.1746 8.07523 13.3122 8.13847 13.4642C8.56226 14.3396 8.97911 15.2219 9.37512 16.1216C9.65996 16.7607 9.56617 17.4277 9.12848 17.782C8.88568 17.9425 8.62442 18.0731 8.35037 18.1711ZM8.81585 16.9588C8.81514 16.8796 8.80817 16.8006 8.795 16.7225C8.35037 15.7395 7.9231 14.746 7.45067 13.7768C7.42506 13.7117 7.38458 13.6535 7.33245 13.6069C7.28032 13.5603 7.218 13.5265 7.15048 13.5083C7.08296 13.49 7.01211 13.4879 6.94359 13.5019C6.87508 13.516 6.81081 13.5459 6.75592 13.5892C6.63459 13.6802 6.55116 13.8128 6.52166 13.9616C6.49217 14.1103 6.51869 14.2647 6.59613 14.3951C6.90182 15.0899 7.21098 15.7499 7.53057 16.4203C7.64188 16.6959 7.78779 16.9562 7.96478 17.195C8.02946 17.2553 8.10791 17.2988 8.19328 17.3218C8.27866 17.3448 8.36836 17.3466 8.45458 17.327C8.60395 17.261 8.72553 17.0525 8.81585 16.9588Z" fill="currentColor" />
        <path d="M17.3091 13.6761C17.3091 14.8016 16.4997 15.3643 15.6278 15.0169C14.7559 14.6696 13.9222 14.3778 13.0642 14.0825C12.8321 14.0188 12.6214 13.8937 12.4544 13.7202C12.2875 13.5468 12.1704 13.3315 12.1157 13.0971C12.0609 12.8626 12.0704 12.6178 12.1432 12.3883C12.216 12.1588 12.3494 11.9533 12.5293 11.7933C12.6624 11.6794 12.8185 11.5956 12.987 11.5476C13.1554 11.4997 13.3323 11.4887 13.5054 11.5154C14.2701 11.731 15.0217 11.9908 15.7564 12.2935C16.0621 12.4047 16.3573 12.5297 16.6561 12.6617C16.854 12.7459 17.0221 12.8876 17.1386 13.0685C17.255 13.2493 17.3144 13.461 17.3091 13.6761ZM16.1003 14.4646C16.2462 14.3222 16.4859 14.1902 16.5692 13.9852C16.6248 13.8428 16.4997 13.5788 16.399 13.4121C16.2984 13.3004 16.1664 13.2217 16.0204 13.1863C15.2284 12.891 14.4294 12.6096 13.6374 12.3178C13.2588 12.1789 12.9704 12.2657 12.8593 12.5714C12.8342 12.6451 12.8239 12.723 12.8291 12.8006C12.8342 12.8783 12.8546 12.9541 12.8891 13.0239C12.9237 13.0936 12.9717 13.1558 13.0303 13.2069C13.089 13.258 13.1572 13.2971 13.231 13.3218C13.891 13.6135 14.5857 13.8637 15.2805 14.1346C15.5202 14.2284 15.7598 14.3291 16.1003 14.4646Z" fill="currentColor" />
        <path d="M10.254 9.92444C10.2496 10.1295 10.1712 10.3261 10.0334 10.478C9.8955 10.63 9.7074 10.727 9.50369 10.7512C9.28924 10.7249 9.09037 10.6256 8.94047 10.47C8.79056 10.3144 8.69874 10.1119 8.68042 9.89665C8.70793 9.68945 8.79987 9.49614 8.94324 9.34404C9.08661 9.19195 9.27416 9.08876 9.47938 9.04906C9.77464 9.03517 10.2505 9.56665 10.254 9.92444Z" fill="currentColor" />
    </g>
</svg>
    