<svg width="24" height="24" viewBox="0 0 24 24" fill="none" xmlns="http://www.w3.org/2000/svg">
    <g clip-path="url(#clip0)">
        <path d="M12.0745 14.8861H23.3038C23.9514 14.8861 24.0227 14.9703 23.9935 15.6179C23.9343 16.7799 23.4346 17.8758 22.5961 18.6824C21.7576 19.489 20.6432 19.9459 19.4798 19.9601C14.5354 19.9601 9.59094 19.9892 4.64328 19.9601C2.17917 19.9406 0.352945 18.0982 0.0841915 15.6211C0.0259077 15.0675 0.210473 14.8894 0.806264 14.8894L12.0745 14.8861ZM0.916355 15.783C0.979992 16.0801 1.06108 16.3731 1.1592 16.6605C1.9169 18.4253 3.29628 19.1797 5.18079 19.1765C9.75607 19.1765 14.3314 19.1765 18.9066 19.1765C19.478 19.1617 20.0456 19.078 20.5969 18.9271C21.8921 18.6033 23.0448 17.1495 23.1322 15.7701L0.916355 15.783Z" fill="currentColor" />
        <path d="M0.790029 9.09012C0.194238 9.09012 0.0096723 8.91203 0.0679562 8.35833C0.336709 5.88127 2.16294 4.03237 4.62705 4.03237C9.5747 3.99676 14.5191 4.00971 19.4635 4.03237C20.6303 4.0416 21.7496 4.49628 22.5922 5.30343C23.4349 6.11057 23.9373 7.20918 23.9967 8.37452C24.0259 9.02212 23.9449 9.10631 23.307 9.10631C19.5639 9.10631 15.8208 9.10631 12.0777 9.10631C8.33455 9.10631 4.572 9.10091 0.790029 9.09012ZM23.1322 8.19319C23.0447 6.81705 21.8791 5.35671 20.5968 5.03615C20.0441 4.89564 19.4768 4.82065 18.9066 4.81273C14.3313 4.81273 9.75603 4.81273 5.18075 4.81273C3.29623 4.81273 1.91685 5.56071 1.15916 7.32541C1.06091 7.61395 0.979823 7.90804 0.91631 8.20615L23.1322 8.19319Z" fill="currentColor" />
        <path d="M1.2594 10.1263C1.67665 10.2389 2.06084 10.4498 2.37975 10.7415C2.96906 11.1948 3.27667 11.2207 3.83361 10.7415C4.14327 10.4321 4.56313 10.2582 5.0009 10.2582C5.43868 10.2582 5.85854 10.4321 6.1682 10.7415C6.83523 11.3308 7.01979 11.3308 7.71596 10.7415C8.01185 10.452 8.40937 10.2898 8.82335 10.2898C9.23734 10.2898 9.63485 10.452 9.93075 10.7415C10.4715 11.1948 10.8698 11.1883 11.3457 10.7221C11.5014 10.56 11.6878 10.4304 11.8939 10.3409C12.1001 10.2514 12.322 10.2038 12.5467 10.2008C12.7715 10.1978 12.9946 10.2394 13.2031 10.3234C13.4116 10.4073 13.6013 10.5318 13.7613 10.6897C14.4866 11.3373 14.7327 11.3632 15.4094 10.667C15.742 10.349 16.1845 10.1715 16.6447 10.1715C17.1049 10.1715 17.5474 10.349 17.88 10.667C18.5989 11.3956 18.7769 11.3859 19.5735 10.735C19.8769 10.4982 20.2507 10.3695 20.6355 10.3695C21.0204 10.3695 21.3942 10.4982 21.6976 10.735C22.1574 11.1463 22.5816 11.3826 23.1547 10.9131C23.2583 10.8257 23.5271 10.9358 23.7214 10.9552C23.689 11.156 23.7214 11.4118 23.6145 11.5478C23.1677 12.0917 22.0408 12.1436 21.4742 11.6158C20.7845 10.9682 20.4089 11.075 19.8293 11.5996C19.1558 12.2148 18.1617 12.1274 17.4267 11.428C16.7435 10.7804 16.4553 10.7642 15.8077 11.428C15.4699 11.7561 15.0175 11.9397 14.5465 11.9397C14.0755 11.9397 13.6231 11.7561 13.2853 11.428C12.7025 10.8645 12.4013 10.8354 11.8379 11.3956C11.5106 11.6794 11.0948 11.8405 10.6617 11.8511C10.2286 11.8618 9.80529 11.7213 9.46448 11.4539C8.98525 11.02 8.66469 11.0523 8.16928 11.4765C7.36949 12.1241 6.48228 12.1241 5.69221 11.4085C5.22271 10.9876 4.80501 10.9876 4.31931 11.4085C4.0006 11.7215 3.57313 11.899 3.12646 11.9038C2.6798 11.9087 2.24859 11.7405 1.92319 11.4344C1.38245 10.9844 1.17845 10.9552 0.585901 11.3243C0.36248 11.4636 0.129344 11.5413 0.0289666 11.2693C-0.00468428 11.1644 -0.0128378 11.053 0.00518227 10.9443C0.0232023 10.8356 0.0668765 10.7328 0.132582 10.6444C0.455042 10.3739 0.844193 10.195 1.2594 10.1263Z" fill="currentColor" />
        <path d="M23.4884 13.8435H0.498663C0.389641 13.8341 0.288113 13.7841 0.214138 13.7035C0.140163 13.6229 0.0991211 13.5174 0.0991211 13.408C0.0991211 13.2986 0.140163 13.1931 0.214138 13.1125C0.288113 13.0318 0.389641 12.9819 0.498663 12.9725H23.4884C23.5974 12.9819 23.699 13.0318 23.7729 13.1125C23.8469 13.1931 23.888 13.2986 23.888 13.408C23.888 13.5174 23.8469 13.6229 23.7729 13.7035C23.699 13.7841 23.5974 13.8341 23.4884 13.8435Z" fill="currentColor" />
        <path d="M10.0897 7.37723C10.029 7.37735 9.96951 7.36042 9.91798 7.32836C9.86646 7.2963 9.82498 7.2504 9.79828 7.1959C9.51671 6.58366 9.09611 6.0456 8.56995 5.62456C8.04378 5.20352 7.4266 4.91112 6.76752 4.77065C6.72499 4.76065 6.68486 4.74239 6.6494 4.71688C6.61393 4.69138 6.58384 4.65914 6.56084 4.622C6.51439 4.54701 6.49963 4.45663 6.51981 4.37076C6.53999 4.28488 6.59346 4.21054 6.66845 4.16408C6.74345 4.11763 6.83382 4.10287 6.9197 4.12305C7.67194 4.28869 8.37573 4.62591 8.97616 5.10838C9.57658 5.59086 10.0574 6.20555 10.3811 6.90448C10.4005 6.9427 10.4122 6.98439 10.4153 7.02714C10.4185 7.06988 10.4131 7.11283 10.3996 7.15349C10.386 7.19416 10.3645 7.23172 10.3364 7.26402C10.3082 7.29631 10.2739 7.32269 10.2354 7.34161C10.1901 7.36408 10.1403 7.37625 10.0897 7.37723Z" fill="currentColor" />
        <path d="M16.2937 7.37723C16.233 7.37735 16.1735 7.36042 16.122 7.32836C16.0704 7.2963 16.029 7.2504 16.0023 7.1959C15.7207 6.58366 15.3001 6.0456 14.7739 5.62456C14.2478 5.20352 13.6306 4.91112 12.9715 4.77065C12.8856 4.75047 12.8113 4.697 12.7648 4.622C12.7184 4.54701 12.7036 4.45663 12.7238 4.37076C12.744 4.28488 12.7974 4.21054 12.8724 4.16408C12.9474 4.11763 13.0378 4.10287 13.1237 4.12305C13.8749 4.2878 14.5781 4.62319 15.1789 5.10326C15.7796 5.58334 16.2619 6.19521 16.5883 6.89153C16.6076 6.92995 16.6191 6.97182 16.622 7.0147C16.625 7.05759 16.6194 7.10063 16.6055 7.14132C16.5916 7.18201 16.5698 7.21953 16.5413 7.25169C16.5128 7.28386 16.4781 7.31002 16.4394 7.32866C16.3954 7.3563 16.3454 7.37296 16.2937 7.37723Z" fill="currentColor" />
    </g>
</svg>
    