<svg width="24" height="24" viewBox="0 0 24 24" fill="none" xmlns="http://www.w3.org/2000/svg">
    <path fill-rule="evenodd" clip-rule="evenodd" d="M16 10C16 13.3137 13.3137 16 10 16C6.68629 16 4 13.3137 4 10C4 6.68629 6.68629 4 10 4C13.3137 4 16 6.68629 16 10ZM14.1154 16.8617C12.913 17.5844 11.5051 18 10 18C5.58172 18 2 14.4183 2 10C2 5.58172 5.58172 2 10 2C14.4183 2 18 5.58172 18 10C18 11.5051 17.5844 12.913 16.8617 14.1155C16.9974 14.1975 17.1255 14.2971 17.2426 14.4142L20.7782 17.9498C21.5592 18.7308 21.5592 19.9971 20.7782 20.7782C19.9971 21.5592 18.7308 21.5592 17.9497 20.7782L14.4142 17.2426C14.297 17.1255 14.1975 16.9974 14.1154 16.8617Z" fill="currentColor" />
</svg>
    