<svg width="24" height="24" viewBox="0 0 24 24" fill="none" xmlns="http://www.w3.org/2000/svg">
    <g clip-path="url(#clip0)">
        <path d="M11.9887 5.03431C12.2817 4.97012 12.5865 4.98694 12.8706 5.08298C13.1547 5.17902 13.4073 5.35064 13.6012 5.57941C13.6705 5.64561 13.7257 5.72517 13.7633 5.8133C13.801 5.90142 13.8205 5.99627 13.8205 6.09212C13.8205 6.18796 13.801 6.28281 13.7633 6.37093C13.7257 6.45905 13.6705 6.53862 13.6012 6.60482C13.5432 6.68638 13.4982 6.77637 13.4678 6.87165C13.5486 6.91394 13.6344 6.94596 13.7232 6.96695C16.1489 7.31135 18.3737 8.50547 20.0014 10.3367C21.2562 11.7035 22.1579 13.3563 22.6279 15.1512C22.757 15.7032 22.8348 16.2659 22.8604 16.8323C22.8505 16.9459 22.8845 17.059 22.9554 17.1483C23.0263 17.2377 23.1287 17.2964 23.2416 17.3126C23.4313 17.3578 23.604 17.4566 23.7391 17.5972C23.8743 17.7377 23.9662 17.9141 24.004 18.1055C24.0506 18.3028 24.0306 18.51 23.9472 18.6948C23.8638 18.8795 23.7216 19.0315 23.5427 19.1271C23.3673 19.2265 23.1687 19.2778 22.9671 19.2757C16.0141 19.2757 9.06115 19.2757 2.10817 19.2757C1.77272 19.2757 1.43345 19.2757 1.09419 19.2757C0.864374 19.2901 0.636497 19.2259 0.448051 19.0935C0.259605 18.9612 0.121814 18.7687 0.0573405 18.5476C-0.0172481 18.3131 0.00378366 18.0585 0.115855 17.8394C0.227927 17.6203 0.421978 17.4542 0.655819 17.3774C1.08657 17.2363 1.15518 16.9962 1.18949 16.5807C1.38431 14.6649 2.09724 12.8385 3.25175 11.2973C4.39151 9.6644 5.9805 8.39717 7.82608 7.64929C8.61255 7.37499 9.41602 7.15216 10.2314 6.9822C10.3402 6.9472 10.4471 6.90648 10.5516 6.86022C10.5053 6.74694 10.4437 6.64051 10.3686 6.54383C10.2563 6.42553 10.1937 6.26861 10.1937 6.10546C10.1937 5.94231 10.2563 5.78538 10.3686 5.66708C10.5463 5.41374 10.7949 5.21853 11.0831 5.10595C11.3713 4.99338 11.6864 4.96845 11.9887 5.03431ZM10.9938 17.2706H19.7956C20.0967 17.2706 20.1997 17.1296 20.1463 16.8666C19.9976 16.1385 19.8528 15.4066 19.6698 14.6823C19.4485 13.7667 19.0411 12.9064 18.4728 12.155C17.9163 11.4422 17.2988 10.7827 16.685 10.1194C16.4563 9.87547 16.6088 9.73823 16.7422 9.57432C16.8756 9.41041 16.9862 9.39898 17.1539 9.54765C19.1818 11.3232 20.4812 13.7862 20.8019 16.4625C20.9392 17.465 20.7676 17.2478 21.8197 17.263C21.8692 17.2715 21.9201 17.2668 21.9672 17.2494C22.0143 17.232 22.056 17.2025 22.0881 17.1638C22.1201 17.1252 22.1415 17.0788 22.1499 17.0293C22.1583 16.9798 22.1536 16.9289 22.1361 16.8818C21.9722 16.0584 21.8426 15.216 21.6024 14.4117C21.1532 12.9653 20.3485 11.6547 19.2619 10.5997C17.7649 9.05745 15.8155 8.03205 13.6965 7.67216C12.3011 7.46142 10.8786 7.51574 9.50334 7.83227C8.22274 8.1061 7.02181 8.66939 5.99254 9.47902C4.83084 10.3274 3.86058 11.4107 3.14475 12.6585C2.42892 13.9062 1.98354 15.2906 1.83752 16.7217C1.78416 17.1982 1.83752 17.2516 2.29877 17.2516L10.9938 17.2706ZM11.9811 18.033V18.0064H1.04083C0.846419 18.0064 0.659624 18.075 0.720615 18.2846C0.747637 18.3542 0.790739 18.4163 0.846392 18.466C0.902046 18.5157 0.96868 18.5515 1.04083 18.5705C1.26907 18.5914 1.49873 18.5914 1.72697 18.5705H22.1552C22.4089 18.5897 22.6638 18.5897 22.9176 18.5705C22.9901 18.554 23.0576 18.52 23.1141 18.4715C23.1705 18.423 23.2143 18.3615 23.2416 18.2922C23.2721 18.0788 23.1044 17.9835 22.8833 18.0064C22.7403 18.0242 22.5965 18.0344 22.4525 18.0368L11.9811 18.033ZM11.943 5.70902C11.7207 5.71604 11.4991 5.73768 11.2797 5.77381C11.2035 5.77381 11.1501 5.91105 11.0853 5.98729C11.1615 6.02922 11.2378 6.10927 11.3178 6.11308C11.7524 6.11308 12.1869 6.13214 12.6215 6.11308C12.7016 6.11308 12.7816 6.01016 12.8579 5.95679C12.7854 5.88817 12.7206 5.78144 12.6406 5.76619C12.4147 5.72986 12.1868 5.70695 11.9582 5.69758L11.943 5.70902Z" fill="currentColor" />
    </g>
</svg>
    