<svg width="24" height="24" viewBox="0 0 24 24" fill="none" xmlns="http://www.w3.org/2000/svg">
    <path d="M14.184 20.9544C14.0041 20.9992 13.8208 21.039 13.6388 21.0725C13.1632 21.161 12.8487 21.6185 12.9367 22.0946C12.9801 22.3288 13.1131 22.5239 13.2938 22.6513C13.4799 22.7823 13.7168 22.8414 13.9582 22.7965C14.1749 22.7563 14.3933 22.709 14.6076 22.6555C15.0773 22.5386 15.3635 22.0628 15.2463 21.5932C15.1294 21.1233 14.654 20.8374 14.184 20.9544Z" fill="currentColor" />
    <path d="M20.6665 9.20441C20.7279 9.38948 20.8452 9.54056 20.9932 9.64495C21.2128 9.79959 21.5001 9.85162 21.7743 9.76096C22.2339 9.60834 22.483 9.11268 22.3309 8.65326C22.2616 8.44382 22.1848 8.23372 22.1029 8.02916C21.9231 7.57963 21.4131 7.36077 20.9634 7.54058C20.5141 7.7203 20.2951 8.23035 20.4751 8.68002C20.5439 8.85196 20.6083 9.02844 20.6665 9.20441Z" fill="currentColor" />
    <path d="M17.0325 19.7028C16.8778 19.8049 16.7182 19.9037 16.5574 19.9963C16.138 20.2382 15.9943 20.7744 16.2362 21.1937C16.3018 21.3078 16.3893 21.401 16.49 21.4723C16.7605 21.6625 17.1277 21.691 17.4335 21.5149C17.6246 21.4046 17.8147 21.2873 17.9989 21.1656C18.4027 20.8988 18.5138 20.3549 18.2469 19.9509C17.98 19.5468 17.4364 19.4358 17.0325 19.7028Z" fill="currentColor" />
    <path d="M22.8761 11.6528C22.857 11.1689 22.4495 10.7923 21.9655 10.8112C21.4821 10.8303 21.1052 11.238 21.1242 11.7216C21.1315 11.9066 21.1333 12.0942 21.1291 12.279C21.1223 12.5824 21.2707 12.8529 21.5013 13.0154C21.6387 13.1122 21.8054 13.1707 21.9862 13.1749C22.4701 13.1856 22.871 12.8018 22.8818 12.3177C22.8866 12.097 22.8848 11.8734 22.8761 11.6528Z" fill="currentColor" />
    <path d="M20.5235 17.3966C20.1355 17.1055 19.5866 17.1845 19.2961 17.5718C19.1848 17.7201 19.0676 17.8666 18.9476 18.0077C18.634 18.3761 18.6783 18.9295 19.0467 19.2433C19.0677 19.2612 19.089 19.2775 19.111 19.2929C19.4773 19.5511 19.9863 19.4918 20.2825 19.1443C20.4258 18.976 20.5655 18.801 20.6985 18.6238C20.9891 18.2366 20.9104 17.6873 20.5235 17.3966Z" fill="currentColor" />
    <path d="M21.8121 14.2278C21.3502 14.0829 20.8582 14.3401 20.7135 14.802C20.6581 14.9785 20.5967 15.1559 20.5304 15.3295C20.3848 15.7118 20.5243 16.1325 20.844 16.3579C20.9026 16.3991 20.9672 16.434 21.0374 16.4606C21.4897 16.6332 21.9962 16.4062 22.1686 15.9538C22.2473 15.7473 22.3203 15.5363 22.3863 15.3265C22.531 14.8644 22.274 14.3726 21.8121 14.2278Z" fill="currentColor" />
    <path d="M10.3593 21.0804C9.57556 20.9397 8.82373 20.7 8.11081 20.3658C8.10237 20.3614 8.09483 20.3564 8.08597 20.3524C7.91797 20.2733 7.75025 20.1886 7.58769 20.1001L7.5852 20.0986C7.28694 19.9344 6.99584 19.7527 6.71305 19.5536C2.58936 16.6487 1.59786 10.9305 4.50289 6.80691C5.13458 5.91056 5.89901 5.16277 6.75125 4.57008C6.76175 4.56277 6.77225 4.5555 6.78265 4.54814C9.7858 2.47889 13.8636 2.33944 17.0525 4.46578L16.3676 5.45536C16.1772 5.7308 16.2943 5.93152 16.6276 5.90152L19.6026 5.63517C19.9364 5.60517 20.136 5.31647 20.0462 4.99416L19.2473 2.11575C19.1579 1.79306 18.9289 1.75444 18.7383 2.02983L18.0518 3.02175C15.7116 1.45083 12.9048 0.851812 10.1189 1.33491C9.83829 1.38347 9.56164 1.44291 9.28878 1.51209C9.28667 1.51247 9.2833 1.51308 9.2833 1.51308C9.27275 1.51566 9.26206 1.51908 9.25179 1.52194C6.84945 2.13886 4.75344 3.54 3.25779 5.53912C3.24519 5.55408 3.2322 5.5687 3.22029 5.58497C3.17056 5.65195 3.1212 5.72048 3.07287 5.78902C2.99384 5.90133 2.91594 6.01645 2.8414 6.13158C2.83208 6.14545 2.82495 6.15956 2.81679 6.17358C1.58258 8.08612 0.987263 10.2972 1.08936 12.5483C1.08959 12.5557 1.08917 12.5631 1.08936 12.5707C1.09925 12.7906 1.11669 13.0135 1.14036 13.233C1.14162 13.2472 1.14476 13.2606 1.14715 13.2747C1.17162 13.4954 1.20233 13.7166 1.24081 13.9378C1.63194 16.1942 2.69637 18.2247 4.29139 19.8046C4.29509 19.8083 4.29894 19.8124 4.30269 19.8162L4.30672 19.8198C4.73525 20.2425 5.20137 20.6334 5.70326 20.9869C7.0167 21.9124 8.47925 22.5241 10.0499 22.806C10.5265 22.8916 10.9818 22.5744 11.0673 22.098C11.1527 21.6214 10.8357 21.1658 10.3593 21.0804Z" fill="currentColor" />
    <path d="M11.4433 4.99268C11.0513 4.99268 10.7338 5.31049 10.7338 5.70194V12.7682L17.1964 16.109C17.3005 16.1629 17.4118 16.1883 17.5214 16.1883C17.7781 16.1883 18.026 16.0485 18.1521 15.8046C18.3318 15.4565 18.1958 15.0288 17.8477 14.8491L12.1521 11.9045V5.70194C12.152 5.31049 11.8349 4.99268 11.4433 4.99268Z" fill="currentColor" />
</svg>
    