<svg width="24" height="24" viewBox="0 0 24 24" fill="none" xmlns="http://www.w3.org/2000/svg">
    <path d="M20.4853 3.51473C18.2188 1.24823 15.2053 0 12 0C8.79469 0 5.78123 1.24823 3.51473 3.51473C1.24823 5.78123 0 8.79469 0 12C0 15.2053 1.24819 18.2188 3.51469 20.4853C5.78123 22.7518 8.79469 24 12 24C15.2053 24 18.2188 22.7518 20.4853 20.4853C22.7518 18.2188 24 15.2053 24 12C24 8.79469 22.7518 5.78123 20.4853 3.51473ZM19.4909 19.4909C17.49 21.4918 14.8297 22.5938 12 22.5938C9.1703 22.5938 6.51 21.4918 4.50909 19.4909C2.50819 17.49 1.40625 14.8297 1.40625 12C1.40625 9.1703 2.50819 6.51 4.50909 4.50909C6.51 2.50819 9.1703 1.40625 12 1.40625C14.8297 1.40625 17.49 2.50819 19.4909 4.50909C21.4918 6.51 22.5938 9.1703 22.5938 12C22.5938 14.8297 21.4918 17.49 19.4909 19.4909Z" fill="currentColor" />
    <path d="M11.6148 9.0968C11.0768 10.7144 11.779 12.4512 13.2023 13.2706L11.6589 17.9179L7.44198 5.71144L6.11279 6.17062L10.881 19.9726H12.4583L14.5359 13.7166C15.3592 13.7968 16.0479 13.6176 16.546 13.368C17.3893 12.9458 18.0177 12.2204 18.3153 11.3255C19.315 8.31998 16.8139 5.05917 16.7192 4.93758C16.5706 4.97822 12.6146 6.09122 11.6148 9.0968ZM16.9809 10.8817C16.8018 11.4202 16.4237 11.8567 15.9164 12.1107C15.6249 12.2566 15.3109 12.332 14.9944 12.3361L15.6926 10.2338L14.358 9.79055L13.6614 11.8883C12.9713 11.3508 12.6577 10.4168 12.9491 9.54066C13.5224 7.81706 15.3143 6.92109 16.1724 6.58148C16.6562 7.36739 17.5542 9.15811 16.9809 10.8817Z" fill="currentColor" />
</svg>
    