<svg width="24" height="24" viewBox="0 0 24 24" fill="none" xmlns="http://www.w3.org/2000/svg">
    <path d="M11.845 15.649C11.2945 15.649 10.8331 16.1104 10.8331 16.6609C10.8331 17.2114 11.2945 17.6728 11.845 17.6728C12.3753 17.6728 12.8569 17.2114 12.8326 16.6852C12.8569 16.1064 12.3995 15.649 11.845 15.649Z" fill="currentColor" />
    <path d="M21.2113 19.2352C21.8468 18.1383 21.8508 16.8309 21.2194 15.738L14.8807 4.76074C14.2533 3.65572 13.12 3 11.849 3C10.5781 3 9.44471 3.65977 8.81732 4.75669L2.47056 15.7461C1.83912 16.8511 1.84317 18.1666 2.4827 19.2635C3.11414 20.3483 4.24344 21 5.50632 21H18.1674C19.4344 21 20.5718 20.3402 21.2113 19.2352ZM19.8351 18.4419C19.4829 19.049 18.8596 19.4093 18.1634 19.4093H5.50227C4.81417 19.4093 4.19487 19.0571 3.85082 18.4621C3.50272 17.859 3.49867 17.1385 3.84677 16.5314L10.1935 5.54599C10.5376 4.94288 11.1528 4.58669 11.849 4.58669C12.5412 4.58669 13.1605 4.94693 13.5045 5.55003L19.8472 16.5354C20.1872 17.1264 20.1832 17.8388 19.8351 18.4419Z" fill="currentColor" />
    <path d="M11.5941 8.54531C11.1124 8.68293 10.8129 9.12008 10.8129 9.65032C10.8372 9.97009 10.8574 10.2939 10.8817 10.6137C10.9505 11.832 11.0193 13.0261 11.0881 14.2444C11.1124 14.6573 11.4322 14.9568 11.845 14.9568C12.2579 14.9568 12.5817 14.6371 12.6019 14.2201C12.6019 13.9692 12.6019 13.7385 12.6262 13.4835C12.6707 12.7023 12.7193 11.9211 12.7638 11.1399C12.7881 10.6339 12.8327 10.1279 12.8569 9.62199C12.8569 9.43984 12.8327 9.27794 12.7638 9.11603C12.5574 8.66269 12.0757 8.43197 11.5941 8.54531Z" fill="currentColor" />
</svg>
    