<svg width="72" height="72" viewBox="0 0 72 72" fill="none" xmlns="http://www.w3.org/2000/svg">
    <path fill-rule="evenodd" clip-rule="evenodd" d="M52 23.341L65.394 29.081C65.5738 29.1581 65.7271 29.2863 65.8348 29.4496C65.9426 29.613 66 29.8043 66 30V39.708C65.9973 43.0507 65.1982 46.3446 63.6689 49.3169C62.1396 52.2893 59.9241 54.8545 57.206 56.8L52 60.514V63C52 63.7957 51.6839 64.5587 51.1213 65.1213C50.5587 65.6839 49.7957 66 49 66H9C8.20435 66 7.44129 65.6839 6.87868 65.1213C6.31607 64.5587 6 63.7957 6 63V9C6 8.20435 6.31607 7.44129 6.87868 6.87868C7.44129 6.31607 8.20435 6 9 6H46C46.2652 6.00006 46.5195 6.10545 46.707 6.293L51.707 11.293C51.8946 11.4805 51.9999 11.7348 52 12V23.341ZM50 13V12.414L45.586 8H45V13H50ZM9 64H49C49.2652 64 49.5196 63.8946 49.7071 63.7071C49.8946 63.5196 50 63.2652 50 63V60.514L44.794 56.8C42.0759 54.8545 39.8604 52.2893 38.3311 49.3169C36.8018 46.3446 36.0027 43.0507 36 39.708V30C36 29.8043 36.0574 29.613 36.1652 29.4496C36.2729 29.2863 36.4262 29.1581 36.606 29.081L50 23.341V15H44C43.7348 15 43.4804 14.8946 43.2929 14.7071C43.1054 14.5196 43 14.2652 43 14V8H9C8.73478 8 8.48043 8.10536 8.29289 8.29289C8.10536 8.48043 8 8.73478 8 9V17.3333H31.3333V19.3333H8V23.3333H31.3333V25.3333H8V29.3333H31.3333V31.3333H8V63C8 63.2652 8.10536 63.5196 8.29289 63.7071C8.48043 63.8946 8.73478 64 9 64ZM61.8903 48.3999C63.2739 45.7113 63.997 42.7317 64 39.708V30.659L51 25.088L38 30.659V39.708C38.0026 42.7321 38.7257 45.712 40.1092 48.401C41.4928 51.09 43.497 53.4108 45.956 55.171L51 58.771L56.044 55.169C58.5027 53.409 60.5068 51.0886 61.8903 48.3999Z" fill="currentColor" />
    <path fill-rule="evenodd" clip-rule="evenodd" d="M65.8676 27.9788C66.2632 28.1485 66.6004 28.4304 66.8374 28.7898C67.0744 29.1492 67.2007 29.5702 67.2008 30.0006V39.7088C67.1979 43.2421 66.3533 46.7249 64.7368 49.8667C63.1202 53.0086 60.7784 55.7201 57.9052 57.7766L53.2008 61.1328V63.0008C53.2008 64.1147 52.7583 65.183 51.9706 65.9706C51.183 66.7583 50.1147 67.2008 49.0008 67.2008H9.00078C7.88687 67.2008 6.81859 66.7583 6.03093 65.9706C5.24328 65.183 4.80078 64.1147 4.80078 63.0008V9.00078C4.80078 7.88687 5.24328 6.81859 6.03093 6.03093C6.81859 5.24328 7.88687 4.80078 9.00078 4.80078H46.0008C46.5842 4.80091 47.144 5.03277 47.5564 5.44538L52.5562 10.4451C52.5562 10.4452 52.5561 10.4451 52.5562 10.4451C52.9687 10.8576 53.2007 11.4172 53.2008 12.0005V22.5505L65.8676 27.9788ZM52.0008 23.3418V12.0008C52.0007 11.7356 51.8953 11.4813 51.7078 11.2938L46.7078 6.29378C46.5203 6.10623 46.266 6.00084 46.0008 6.00078H9.00078C8.20513 6.00078 7.44207 6.31685 6.87946 6.87946C6.31685 7.44207 6.00078 8.20513 6.00078 9.00078V63.0008C6.00078 63.7964 6.31685 64.5595 6.87946 65.1221C7.44207 65.6847 8.20513 66.0008 9.00078 66.0008H49.0008C49.7964 66.0008 50.5595 65.6847 51.1221 65.1221C51.6847 64.5595 52.0008 63.7964 52.0008 63.0008V60.5148L57.2068 56.8008C59.9249 54.8552 62.1404 52.2901 63.6697 49.3177C65.199 46.3454 65.9981 43.0515 66.0008 39.7088V30.0008C66.0008 29.8051 65.9433 29.6137 65.8356 29.4504C65.7279 29.287 65.5746 29.1589 65.3948 29.0818L52.0008 23.3418ZM36.0008 30.0008C36.0008 29.8051 36.0582 29.6137 36.1659 29.4504C36.2737 29.287 36.4269 29.1589 36.6068 29.0818L50.0008 23.3418V15.0008H44.0008C43.7356 15.0008 43.4812 14.8954 43.2937 14.7079C43.1061 14.5204 43.0008 14.266 43.0008 14.0008V8.00078H9.00078C8.73556 8.00078 8.48121 8.10614 8.29367 8.29367C8.10614 8.48121 8.00078 8.73556 8.00078 9.00078V17.3341H31.3341V19.3341H8.00078V23.3341H31.3341V25.3341H8.00078V29.3341H31.3341V31.3341H8.00078V63.0008C8.00078 63.266 8.10614 63.5204 8.29367 63.7079C8.48121 63.8954 8.73556 64.0008 9.00078 64.0008H49.0008C49.266 64.0008 49.5204 63.8954 49.7079 63.7079C49.8954 63.5204 50.0008 63.266 50.0008 63.0008V60.5148L44.7948 56.8008C42.0766 54.8552 39.8612 52.2901 38.3319 49.3177C36.8026 46.3454 36.0035 43.0515 36.0008 39.7088V30.0008ZM48.8008 61.1328L44.0979 57.7777C41.2247 55.7212 38.8813 53.0086 37.2648 49.8667C35.6483 46.7249 34.8036 43.2431 34.8008 39.7098V30.0008C34.8008 29.5703 34.9272 29.1492 35.1641 28.7898C35.4011 28.4304 35.7383 28.1485 36.134 27.9788L48.8008 22.5505V16.2008H44.0008C43.4173 16.2008 42.8577 15.969 42.4451 15.5564C42.0326 15.1438 41.8008 14.5843 41.8008 14.0008V9.20078H9.20078V16.1341H32.5341V20.5341H9.20078V22.1341H32.5341V26.5341H9.20078V28.1341H32.5341V32.5341H9.20078V62.8008H48.8008V61.1328ZM45.0008 13.0008V8.00078H45.5868L50.0008 12.4148V13.0008H45.0008ZM47.6897 11.8008L46.2008 10.3118V11.8008H47.6897ZM60.8241 47.8516C62.1204 45.3325 62.798 42.5407 62.8008 39.7076V31.4511L51.0008 26.3943L39.2008 31.4511V39.7077C39.2033 42.5412 39.8807 45.3333 41.1771 47.8528C42.4734 50.3723 44.3513 52.5467 46.6553 54.196L51.0006 57.2974L55.3463 54.194C57.65 52.5449 59.5278 50.3708 60.8241 47.8516ZM56.0448 55.1698L51.0008 58.7718L45.9568 55.1718C43.4978 53.4115 41.4936 51.0908 40.11 48.4018C38.7265 45.7128 38.0034 42.7329 38.0008 39.7088V30.6598L51.0008 25.0888L64.0008 30.6598V39.7088C63.9978 42.7325 63.2746 45.7121 61.8911 48.4007C60.5076 51.0893 58.5035 53.4097 56.0448 55.1698Z" fill="currentColor" />
</svg>
    